<?xml version="1.0" encoding="UTF-8"?>
<svg version="1.1" viewBox="0 0 1200 1200" width="1280" height="1280" xmlns="http://www.w3.org/2000/svg">
<path transform="translate(0)" d="m0 0h1200v1200h-1200z" fill="#F7F7F8"/>
<path transform="translate(598,18)" d="m0 0h10l26 5 26 9 29 13 10 5 9 4 7 3 23 12 21 12 36 24 7 5 6 3 9 8 8 7 9 9 8 7 2 4h2l9 11 11 14 5 8 5 11v-3l1-11 3-10 2 4-2 23 5 4 13 2 9 6 11 14 12 20 14 26 5 11 1 8-3-4-10-18-7-10 8 19 3 11v11l-1 9v28l1 32 1 51v22l-1 21-3 19-3 10-6 10-7 8-3 7 1 9 1 38-1 2 2-1 6-11 8-11 7-6 2-1h6l5 7 2 8v25l-5 31v10l4-15 4-27v-23l-3-20-4-10-4-3h-9l-10 4-8 4-2-1 8-7 14-7h7l6 3 6 8 5 13 3 19v33l-3 22-6 26-5 25-6 36-4 12-7 9-8 5-10 3h-7l-1-3 13-4 10-6 4-8 3-17 2-27-1-5 1-11v-19l-3-26-4-21-5-15v-3l-4 4-7 10-4 69v8l10 5 5-1 3-8v-11l-3-14-8-17v-2l4 1 7 8 5 10 3 16v14l-4 8-5 3h-7l-11-6-2 27-4 41-7 49-6 29-6 18-10 20-11 18-12 17-10 13-11 13-9 10-7 8-14 15-9 9-8 7-10 9-8 7-8 6-18 11-15 8 13 9 13 11 14 9 22 8 40 13 32 14 19 10 18 12 13 11 12 12 11 15 9 16 10 21 9 24 6 24v3h-762l7-15 10-19 14-24 14-25 10-15 7-9 8-7 14-9 18-8 21-8 36-14 24-10 29-11 19-7 15-8 15-10 12-7 8-3 9-1 14-9 4-3h2v-3l-3-1-2 2-5-5-7-8-16-14-7-8-9-9-9-11-11-12-9-11-14-17-15-20-14-21-9-16-8-16-6-14-12-36-7-27v-2l-14-3-19-7-9-5-10-8-8-10-5-10-4-18-4-33-4-17-10-32-4-18v-22l5-16 7-12 6-5 6-2h19l-7-12-5-15-3-21-2-53-3-47v-22l2-18 4-16 7-23 8-20 5-12-7 9-10 15-10 14-3-1 14-26 15-26 12-19 13-24 10-15 14-19 5-6-3 2-8 7-13 12-12 8-10 6-3-1 17-14 8-7 15-13 12-11 14-13 14-11 19-14 17-11 26-16 32-17 27-12 27-9 22-5 24-3h30l1-1-11-1-17-2h-17l-23 3-26 6-10 2 2-2 26-9 24-6z" fill="#060304"/>
<path transform="translate(618,643)" d="m0 0h7l17 7 2 1h8l9-3h5l21 12v-2l-3-1 2-1 12 9 17 12h3l-10-10 5 1 11 9 17 10 3 1-6-8 5 2 19 12 10 8 13 13h1l-4-9h2l8 16 8 20 4 15 2 13-1 19 3-2v31l-3 21v6l4-13h2v14l-1 21-3 18-4 14 3-3 7-12 2 1-1 9-2 6v6l-3 7-6 21-2 1-1 4-10 9-15 13-8 7-20 12-15 8 13 9 13 11 14 9 22 8 40 13 32 14 19 10 18 12 13 11 12 12 11 15 9 16 10 21 9 24 6 24v3h-762l7-15 10-19 14-24 14-25 10-15 7-9 8-7 14-9 18-8 21-8 36-14 24-10 29-11 19-7 15-8 15-10 12-7 8-3 9-1 14-9 4-3h2v-3l-3-1-2 2-5-5-7-8-1-3-5-5-1-3h-2l-3-6-4-7-7-18v-2l-3-1 2-1-3-13-1-24 3-8-5 4 1-5 5-16 2-6v-6l-7 11-2 3h-2l1-6 8-15v-4l-3 5h-2l3-11 2-15 5-22v-5l-3 3 4-20 4-13h-1l-5 4 1-4 13-26 9-12 7-8 5-5h2l2-4 2-1-1 4v2l14-12 14-11 11-11v5l14-11 17-11 5 1 9-6z" fill="#332714"/>
<path transform="translate(619,430)" d="m0 0h43l9 3 3 8 7 40 2 5 5 2 6 16 5 12 4 7 12 6 18 4 21 3 19 1h34l31-2 28-4 16-5 10-5 6-7 3-8 1-9v-26l6-8 3-3 3 56 1 10v37l-6 90-5 51-6 40-5 26-6 23-7 19-8 16-8 14-7 10-9 12-11 14-12 13-7 8-7 6 1-8 2-8v-4l-9 14h-3l5-18 2-14 2-35h-2l-1 7-3 8h-1v-8l3-21v-30l-3 2 1-20-3-18-7-21-6-14-5-9 4 10-3-1-7-8-9-9-18-12-11-7 4 5v2l-4-1-17-10-12-9 4 5 5 6-5-1-17-12-12-9 1 3-4-1-14-8-3-2-8 1-6 2h-8l-16-7-3-1h-7l-12 6-7 5-5-1-21 14-10 8-1-4-12 12-14 11-13 11-1-2 2-5-10 10-11 13-8 14-10 19 1 1 6-5-3 9-4 16-2 10 3-3-1 10-5 23-2 14-3 7 3-3 3-5 1 4-8 16-3 8h2l2-4 7-11h1v7l-6 20-2 6 5-4-3 9 1 24 2 13-4-2-7-8-10-11-9-11-13-16-13-17-10-14-10-15-15-29-11-28-9-30-8-34-6-34-5-36-7-64-3-16 1-9 3-10 2-13 1-11v-25l-1-4 6-8 8-8 1-3v-7l5 2 3 5 3 7 5 5 1 31 3 12 4 6 14 7 20 4 22 2h44l38-3 27-5 21-7 8-6 6-8 8-19 7-3 4-13 6-35 5-5z" fill="#F3B692"/>
<path transform="translate(598,59)" d="m0 0h20l20 2 14 4 27 13 19 10 20 10 18 10 23 13 25 15 7 5 7 3 10 8 3 3-1 2-16-8-19-7-24-10-23-9-13-4 4 2v2l-12-3-10-5-57-24-16-5-14-3-9-1h-35l-4 2 5 1-1 2h-4v3l-3 1 2 2-1 1 6 2h13l19 2 26 8 12 6 4 4-5-1-19-7-17-4-6-1-19-1-14 1-13 4-13 7-11 9-8 8-13 17-13 21-13 22-9 15-3 9-4 38-4 17-8 19-9 14-4 5 4-2 10-15 7-14 7-19 7-25 8-24 9-20 7-11 8-9 12-6 21-7 30-7 8-2h6l-4 3-17 6 12-2 20-3 46-2h14l1 2-14 1-1 1h34l27-3 4 1-9 4-17 4v2h71l14 1 19 5 16 7 11 7 10 8 19 19 13 17 10 13 8 10 13 18-1 2-13-13-9-11-4-3 6 9 9 12 9 13 6 11 4 8-1 2-9-14-5-7 16 32 9 23 7 21 6 26 3 20v8h-15l-9-1-5-1-117 4-63 7-25 3-19 1h-38l-28-2-18-2-67-5-20-1h-54l-53 1-16 1-5 2-4 8-11 25-2 2-2-6-4-28-1-13-1-7 3-9 8-12 13-19v-2l-2-1-2 4-7 7h-2l-1 3-2-1 11-15 6-11 8-11 2-8-5 5-8 10-4 4-2-1 8-11 6-9h2l2-4 3-5-5 5h-2l-2 4-4 3h-2l2-4 7-10 2-5v-6l4-4h-2l-5 5-2 1 2-4 18-30 13-22 7-11 5-7 2 1-10 22-10 19-4 7 4-1 9-11 26-36 12-15 3-4h2l-1 6-8 17-8 14-8 11-12 14-7 8 3-2 8-7 8-8 12-16 9-15 9-14 2 1-1 6-4 8-10 23-11 21 4-2 13-21 7-12 7-14 10-19 16-29 13-22 10-14 11-12 12-12h2v-2l-3 1-2-1v2l-8 6-13 13-9 11-5 7-2 1-19 38-2 1 1-5 15-30 3-9 2-5-5 3-5 5-9 12-5 5 2-5 6-9 6-12-8 6-5 6-5 5-10 13-1-2 12-17 2-2 2-5 3-4-1-1-6 5-3 3-13 10-11 8-3 2 2-4 7-8 7-11 14-14 8-7 9-9 11-8v-2l-5 2-11 7-6 5-6 7h-2l-2 4-7 7-9 11-10 12-11 16-5 6-4 2 2-5 10-14 8-10 11-14 12-13 7-8 9-9 15-10 22-11 24-8 9-1v-2l15-4h-16l-38 13-10 4-2-1 14-8 12-5 12-6 25-7 24-4z" fill="#F3B692"/>
<path transform="translate(522,977)" d="m0 0h5l4 3 10 2 16 6 13 5 4 3h-11l-27-9-6-4-9 10-10 8h-2l3 8 9 14 12 14 11 10 15 10 19 10 21 8 20 6 14 3 8 1h27l17-3 18-6 11-7 4-2 2-4 6-10 2-6v-13l-4-15-8-16-5-7-4 1-6 1 2-4-13 2-9 4-3-1v-1l-8-1 2-2 10-3 14-2 4-2 9-2 2-1h7v3l-5 1 1 2 5 1 4 4 11 16 11 12 10 8 27 15 13 8 22 14 42 28 20 14 19 14 16 13 3 2-1-3-2-26-3-5-12-11-21-14-10-6-16-8-31-15-32-13-20-9-11-7-10-9-10-11-4-5-7-5-6-3v-2h9l10 5 14 12 13 9 8 4 19 7 40 13 32 14 19 10 18 12 13 11 12 12 11 15 9 16 10 21 9 24 6 24v3h-762l7-15 10-19 14-24 14-25 10-15 7-9 8-7 14-9 18-8 21-8 36-14 24-10 29-11 19-7 15-8 15-10 12-7 8-3 9-1 14-9 4-3z" fill="#010002"/>
<path transform="translate(910,460)" d="m0 0h1l3 56 1 10v37l-6 90-5 51-6 40-5 26-6 23-7 19-8 16-8 14-7 10-9 12-11 14-12 13-7 8-7 6 1-8 2-8v-4l-9 14h-3l5-18 2-14 2-35h-2l-1 7-3 8h-1v-8l3-21v-30l-3 2 1-20-3-18-7-21-6-14-5-9 4 10-3-1-7-8-9-9-18-12-11-7 4 5v2l-4-1-17-10-12-9 4 5 5 6-5-1-17-12-10-8-1-3 10-5 5-4 4-4 8-6 6-7 5-10 2-7v-18l-5-14-9-13-11-12-11-14-3-3-3 5-3 1-4-5-2-3-1-15-3-32-1-20 5-1 1 5 2-3 3 14 3 3 3 1 6 16 5 12 4 7 12 6 18 4 21 3 19 1h34l31-2 28-4 16-5 10-5 6-7 3-8 1-9v-26l6-8z" fill="#F3B692"/>
<path transform="translate(614,701)" d="m0 0h16l10 3h13l14-3h7l8 3 27 18 14 10 10 8 10 9 9 9v2h-43l-36-2h-22l-55 3-22 3-25 5-16 3-2 1 1 4 5 3 10-1 16-4 18-6 17-2 22-1 38-1h23l44 2 22 3 16 5h8l3 12 3 25v15l-3 14-7 12-11 12-4 2v-5l1-3-4 6-5 4-9 2h-17l7 4v1h-7l-7-2h-7l-3 1-8-3-5-4v-5l8-8 7-13 2 1 1 3 3-10 2-4 2 3 3 1-1-16-3-5-6-2-7-1h-55l-45 2-9 7-4 9v13l3 10 3 3 2 1-3-9v-6l3 1 6 9 5 5h3l-3-6 5 2 6 5 17 8 1 4-7 9-6 5h-2l2-5 2-3-6 2-28 13-18 6-5 1h-11l1-3 9-3-4-2-16-5-7-5v-2l7 1 2 1-4-6-7-9-7-16-4-13-2-11-1-16 1-17 3-17 6-13 8-14h2l-1 5-3 6 9-9 8-10 1 3-1 3 14-15 11-11 14-10 14-7z" fill="#F3B592"/>
<path transform="translate(825,412)" d="m0 0h7l7 3 29 17 15 9 2 1-5-6-16-12-2-2 5 1 10 5 2-4-1-9 6 1 6 4 4 6 4 15 1 7v32l-1 17-3 14-5 5-10 5-18 4-20 3-28 2h-64l-26-3-14-4-5-4-5-10-8-21-7-29-2-13 1-10 3-6 7-4 16-3 57-8 35-2z" fill="#E88B71"/>
<path transform="translate(459,413)" d="m0 0 40 2 47 3 35 3 12 3 6 4 1 8-5 26-6 26-8 16-7 9-6 4-14 4-19 3-34 3-20 1h-38l-29-2-16-3-8-3-4-5-3-6-2-11-1-14v-12l2-29 4-15 5-7 6-4h2l-1 5-4 7h4l-1 4-2 4 15-9 4-1v2l-13 9-10 8h3l16-9 16-10 16-9 8-4z" fill="#E88B71"/>
<path transform="translate(659,511)" d="m0 0 2 2v3h2l3 12 3 6 9 3 4 6 3-1 3-5 5 5 7 9 12 14 8 10 5 10 3 9v18l-5 14-7 9-8 7-4 2-5 5-5 4-6 2v2h-3l2 1v2l-4-1-14-8-3-2-8 1-6 2h-8l-16-7-3-1h-7l-12 6-7 5-6-1-1-5-4 1-8-4-8-8-6-12-3-9-1-5v-10l4-14 8-14 8-11 2-1-1 7-6 12 1 1h3v-3l8-4 3-3 5-3 6-7 6-12h2l-1-2v-6h2v-5l3-8 2-1 1-3 16-5 9-1 2 1 1-5 6 2 5-2z" fill="#E98D71"/>
<path transform="translate(530,982)" d="m0 0 8 5 25 8 14 3 13 5h2v-3l6 1 11 3h13l13-4 3 1-1 3 10-1 25-6h6l1 2 9-3 8-2h7l-1 3 5-1 4-1 8 11 6 13 4 15v13l-5 12-6 8-13 9-16 6-13 3-8 1h-27l-17-3-22-6-19-7-21-10-12-8-9-7-10-9-9-10-10-15-3-6v-4l9-7 8-7z" fill="#E98C71"/>
<path transform="translate(658,765)" d="m0 0h23l44 2 22 3 16 5h8l3 12 3 25v15l-3 14-7 12-11 12-4 2v-5l1-3-4 6-5 4-9 2h-17l7 4v1h-7l-7-2h-7l-3 1-8-3-5-4v-5l8-8 7-13 2 1 1 3 3-10 2-4 2 3 3 1-1-16-3-5-6-2-7-1h-55l-17 1h-25v-1l15-1-16-5-18-7-21-11-11-7-4-2 16-4 18-6 17-2 22-1z" fill="#D06B70"/>
<path transform="translate(598,59)" d="m0 0h20l20 2 14 4 27 13 19 10 20 10 18 10 23 13 25 15 7 5 7 3 10 8 3 3-1 2-16-8-19-7-24-10-23-9-13-4 4 2v2l-12-3-10-5-57-24-16-5-14-3-9-1h-35l-4 2 5 1-1 2h-4v3l-3 1 2 2-1 1 6 2-4 2-14 4-14 7-6 4-5-1v2l-8 6-13 13-9 11-5 7-2 1-19 38-2 1 1-5 15-30 3-9 2-5-5 3-5 5-9 12-5 5 2-5 6-9 6-12-8 6-5 6-5 5-10 13-1-2 12-17 2-2 2-5 3-4-1-1-6 5-3 3-13 10-11 8-3 2 2-4 7-8 7-11 14-14 8-7 9-9 11-8v-2l-5 2-11 7-6 5-6 7h-2l-2 4-7 7-9 11-10 12-11 16-5 6-4 2 2-5 10-14 8-10 11-14 12-13 7-8 9-9 15-10 22-11 24-8 9-1v-2l15-4h-16l-38 13-10 4-2-1 14-8 12-5 12-6 25-7 24-4z" fill="#584229"/>
<path transform="translate(730,342)" d="m0 0 3 1-5 5 11-3 22-3 1 2-19 7-1 1 14-2 31-6 11-2-3 3-14 5h28l19 3 11 4 1 5 6 2 19 11 10 7 3 4-7-2-6-3-6-2 1 1 15 10 10 9-1 2h-52l-19-1h-51l2-2-3-1-13 3-4-1 4-3h2v-2l-27 9 9-9-16 8-9 4-2-1 8-7 5-5-10 6-10 5-5 2-3-1 7-7-3 1-10 6-5 1 1-4 4-5-6 4-8 6-2-3 4-14 8-16 7-10 7-9 5-2-4 7-3 5 10-8 14-8z" fill="#040203"/>
<path transform="translate(479,348)" d="m0 0 19 4 31 6h3l-7-4-10-3v-2h9l20 4h3l-4-3v-2l9 3 19 10 12 9-2-4-4-4 1-3 5 3 10 13 7 12 6 15 1 4v7l-4-1-4-5-6-3 4 6v2l-5-1-4-2-1-2-5-1h-1l3 4-7-1-10-4-8-5 8 8v2l-5-1-18-9v-2h-2l4 4 5 4-6 1-10-4-7-2 1 3-105 1-21 1h-12l2-4 15-11 9-6-4 1-10 5h-4l2-4 20-12 13-8h2l2-5 14-4 22-2h20l-10-4-6-2z" fill="#050303"/>
<path transform="translate(361,454)" d="m0 0 5 2 3 5 3 7 5 5-2 6-1 2h-2l-4 29-1 11v45l4 36 4 32 3 47 3 31 5 29 9 35 7 22 4 14 4 9 8 14 9 14 8 13 10 13 9 11 7 8h-3l-9-10-11-14-12-15-12-17-10-15-15-29-11-28-9-30-8-34-6-34-5-36-7-64-3-16 1-9 3-10 2-13 1-11v-25l-1-4 6-8 8-8 1-3z" fill="#FEEBD4"/>
<path transform="translate(877,474)" d="m0 0h9l11 8 1 4v11l-3 14-5 5-10 5-18 4-20 3-13 1h-39l-10-1-25-12-10-7-12-11-11-13v-2l14 1 25 4 15 2h18l15-3 14-6 9-3 6-1h22z" fill="#F3B692"/>
<path transform="translate(744,771)" d="m0 0h7l12 4h8l3 12 3 25v15l-3 14-7 12-11 12-4 2v-5l1-3-4 6-5 4-9 2h-17l7 4v1h-7l-7-2h-7l-3 1-8-3-5-4v-5l8-8 7-13 2 1 1 3 3-10 2-4 2 3 3 1-1-16-3-5-6-2-7-1-27-1-1-2 15-4 6-3 8-3 14-7 9-3 1-3h4v-2h3v-2l5-3h2v-2l5-3z" fill="#F3B592"/>
<path transform="translate(668,711)" d="m0 0h11l16 8 7 2 5 2 9 6 7 5 2 5 7 6 4 4 3 2v2h5l1-2 7 7v2h-43l-36-2h-22l-55 3-22 3-12 2h-5l2-1 2-4 5-5 10-9 10-8 13-11 4-2 1-4 8-7 5-2 9 1 7 2h18z" fill="#CF6A70"/>
<path transform="translate(381,468)" d="m0 0 10 3 23 7 20 2 5 3 4 4 12 7 12 5 16 4h24l21-6 15-6 21-11 5-4h3l-2 4-12 13-8 9-8 7-14 13-16 3-11 2-20 1h-38l-29-2-16-3-8-3-4-5-3-6-2-11-1-14v-12z" fill="#F3B591"/>
<path transform="translate(910,460)" d="m0 0h1l3 56 1 10v37l-6 90-5 51-6 40-5 26-6 23-7 19-8 16-8 14-7 10-9 12h-3l8-11 7-12 8-17 8-21 5-25 6-64 3-42 2-38 4-110-1-4 5-10 2-13v-26l6-8z" fill="#FEE9D2"/>
<path transform="translate(559,77)" d="m0 0h39l21 3 21 6 35 16 28 13 4 3-5-1-62-26-16-5-14-3-9-1h-35l-4 2 5 1-1 2h-4v3l-3 1 2 2-1 1 6 2-4 2-14 4-14 7-6 4-5-1v2l-8 6-13 13-9 11-5 7-2 1-19 38-2 1 1-5 15-30 3-9 2-5-5 3-5 5-9 12-5 5 2-5 6-9 6-12-8 6-5 6-5 5-10 13-1-2 12-17 2-2 2-5 3-4-1-1-6 5-3 3-13 10-11 8-3 2 2-4 7-8 7-11 14-14 8-7 9-9 11-8v-2l-5 2-11 7-6 5-6 7h-2l-2 4-7 7-9 11-10 12-11 16-5 6-4 2 2-5 10-14 8-10 11-14 12-13 7-8 9-9 15-10 22-11 24-8 21-4z" fill="#563922"/>
<path transform="translate(648,439)" d="m0 0h10l7 4v6l-1 1v9l3 24 3 42 1 10-3-1-5-12v-6h-2l-2-3-3 3-6 2-3-2-2 4h-7l-15 4-5 1-1 4h-2l-1 7-2 6h-2l1 8h-2l-1 3v-59l3-10 5-10 2-2 3-9 1-1 1-17 4-2 19-3z" fill="#EFAB8A"/>
<path transform="translate(291,1102)" d="m0 0 3 1 12 22 5 9-1 4-13 24-12 22-8 16h-56l2-4 11-16 17-25 15-22 12-17 11-12z" fill="#FCFBFB"/>
<path transform="translate(720,991)" d="m0 0 7 1 10 8 9 11 9 9 11 7 16 8 24 10 21 9 25 12 23 12 21 14 13 11 5 5 1 3 2 29-4-2-16-13-18-13-17-12-39-26-23-15-22-13-23-13-10-8-9-9-10-14-6-9z" fill="#FCF9F7"/>
<path transform="translate(895,223)" d="m0 0 7 4v2l4 2 10 11 8 13 5 12 3 14 1 16 2 59 2 44 2-11 1-25h1l1 51v22l-1 21-2 15-2-2-1 3h-2l-1 7-2 3-8 3h-3v-7l2-9 1-20v-29l-1-20-8-38-8-24-2-8 3 1 12 21h2l-12-26-5-12 1-3 5 7 11 23 2 4 2 1-3-16-6-16-9-21-10-19 1-2 5 6 10 17 1 1 1-2v-7l-6-13v-2h-2l-7-14v-3l4 1 6 12 3 9 4 8 3 3 3 10 2-1v-22l-4-14-8-16-9-12-9-10z" fill="#574028"/>
<path transform="translate(770,438)" d="m0 0h21l17 5 13 8 10 9 11 9 6 4v2l-14-1-11-1-16 7-9 2h-25l-25-5-19-6-14-1-5-3-1-5 2-4 12-6 36-12z" fill="#090605"/>
<path transform="translate(489,442)" d="m0 0h22l23 5 10 3 14 2 3 4 1 6-5 5-21 4-17 8-17 5-6 1h-21l-16-6-3-2h-7l-7 3h-17l-2-2 11-4 12-9 7-7 11-8 8-4 10-3z" fill="#0A0706"/>
<path transform="translate(931,556)" d="m0 0h2l6 18 5 27 2 20v19l-1 15 1 5-3 31-3 12-4 6-10 6-11 3h-2l1 3-4 3 4-44 2-23 1-4 5 2 6 3h7l5-3 3-7v-14l-3-16-7-13-5-5-3-1 9 19 3 14v11l-3 8-2 2-7-1-8-5 1-29 3-48z" fill="#F2B28F"/>
<path transform="translate(325,282)" d="m0 0 1 3-10 21-2 9 3-1 6-9 7-8 3-3-1 5-8 13-2 8-4 12 3-1 7-11 3-4h2l-1 6-10 23-1 5 5-1 2-5 4-4-2 6-4 7-4 13-3 13v8l2-1 7-16 2-1-1 6-4 9h-2l-1 8-10 44-2 6h3l4-8 1 4-4 14v17l3 16 4 10 2 4v4l-4-2-10-13-5-11-2-8v-23l1-15v-23l-3-26-1-13v-10l2-19 3-15 8-24 6-11 4-6z" fill="#584129"/>
<path transform="translate(492 1e3)" d="m0 0h2l1 11 2 3-1 5-18 10-15 8-23 11-32 16-19 10-29 15-22 13-10 8-6 9-4-2-7-8-13-10 4-4 27-13 38-15 28-10 23-8 15-7 13-7 13-9 13-11 14-11z" fill="#FCF7F4"/>
<path transform="translate(678,41)" d="m0 0 9 3 5 3 7 3 9 4 7 3 23 12 21 12 36 24 7 5 6 3 9 8 8 7 9 9 8 7 2 4h2l9 11 2 3-2 4 5 8 2 6-3-1-11-16-9-11-11-12-8-8-17-13-11-9-16-12-4-1 4 4v2l4 2 15 14 9 10 1 3 5 4 6 9 1 4-4-1-10-10-30-23-16-12-17-12-19-12-5-3v-2l-6-2-12-6-12-3-30-9-29-6 1-3h14l18 2 20 6 7 3v2l5 1 10 4 9 3 2 1-2-4-4-3v-2l-6-2-15-9-8-5z" fill="#553822"/>
<path transform="translate(696,414)" d="m0 0h9l1 2h-2v2h2l-1 6-14 4-4 2-3 10 1 14 7 30 7 20 5 11 2 4 7 4-3 4-5-2-5-5-6-13-6-17v-2l-5-1-3-6-7-40-3-8-8-2h-43l-7 3-3 13-4 24-4 13-5 3h-3l-3 10-6 12-4 5-3-1 8-18 3-7 10-45 1-12-1-3-6-4-2-3 4-2-3-3h17l13 1h38l30-2z" fill="#0A0605"/>
<path transform="translate(316,561)" d="m0 0 3 1 13 22 7 12 2 10 4 36 3 22v5l-5-5-6-9-5-4h-15l-5-2-6-9-4-11-1-5v-19l4-16 6-16 4-11z" fill="#E88B71"/>
<path transform="translate(614,701)" d="m0 0h16l10 3h13l14-3h7l8 3 27 18 14 10 10 8 10 9 1 4h-5l-4-4-8-7-4-4v-4l-5-2-9-7-5-3-7-1-15-8-3-1h-11l-17 5h-18l-11-3-8 1-9 7-2 4-11 9-14 12-9 7-5 4-5 7h-2v2l-24 5h-4l1-6 6-11 4-7h2l-1 5-3 6 9-9 8-10 1 3-1 3 14-15 11-11 14-10 14-7z" fill="#F3B593"/>
<path transform="translate(301,648)" d="m0 0h2l6 7h19l7 4 8 10v2l5 2 3 12 6 36v3l-6-1-21-9-13-10-8-10-5-10-2-9-1-9z" fill="#F2B491"/>
<path transform="translate(620,17)" d="m0 0h20l21 4 21 7 26 11 19 9 22 12 26 15 22 14 10 7 17 12 11 9 12 11 13 12 10 12 5 10-1 16-3-1-10-15-10-13-14-15-17-17-8-7-15-12-22-14-25-14-33-17-16-8-20-9-26-10-21-6-14-2z" fill="#0A0706"/>
<path transform="translate(379,325)" d="m0 0 2 1-2 38-1 42 12-1v3l-25 2-5 2-4 8-11 25-2 2-2-6-4-28v-12l8-13 11-17 8-14 11-24z" fill="#FEEBD4"/>
<path transform="translate(887,313)" d="m0 0 3 1 9 24 7 25 5 26 1 16h-15l-9-1-5-1-117 4-19 2h-11l3-2 15-2v-1l21-1v-1l9-2h100l-4-5-12-9-10-6 1-2 11 4 6 3 4 4 2 1-2-5h3l2-13 2-15z" fill="#FEEAD3"/>
<path transform="translate(740,745)" d="m0 0 12 4 5 9 12 10 1 6-1 2h-6l-16-5-22-3-44-2h-23l-38 1-22 1-21 3-24 8-10 2-9-1-4-4 1-4 10-3 16-3 29-5 43-3 22-1h22l36 2 43 1-7-8-5-5z" fill="#18110B"/>
<path transform="translate(596,486)" d="m0 0 2 1-2 3 1 6-8 18-6 10-9 10-6 3-16 3-47 4-26 1h-38l-26-2-12-4-6-5-1-5 11 2 21 3 13 1h44l38-3 27-5 21-7 8-6 6-8 8-19z" fill="#E78A71"/>
<path transform="translate(566,81)" d="m0 0h35l19 3 17 5 20 8 35 15-1 3 6 2 3 3 16 8 10 7-2 1-31-13-24-9-37-12-27-7-6-1h-18l9 2v1h-24l-7-2 1-2-2-2 4-1v-3l4-1-7-2v-1z" fill="#553922"/>
<path transform="translate(613,17)" d="m0 0 15 1 21 5 22 8 26 11 44 22 22 12 17 10 18 12 16 13 15 14 18 18 9 11 11 15 6 9v7l-2-1-4-8-9-12-9-11-3-3v-2h-2l-7-8-10-9-8-8-7-5v-2l-4-2-12-7-11-8-11-7-15-10-18-10-28-15-8-4-6-2-16-8-28-12-21-7-26-5v-1z" fill="#F0AF8F"/>
<path transform="translate(917,653)" d="m0 0 5 2 6 3h7l5-3h5l1 5-3 31-3 12-4 6-10 6-11 3h-2l1 3-4 3 4-44 2-23z" fill="#F3B592"/>
<path transform="translate(899,452)" d="m0 0h1v20h2l1 7v18l-2 13-5 8-7 6-15 6-20 4-26 3-21 1h-34l-19-1-27-4-15-4-2-1 2-4 8 1 19 3 11 1h64l28-2 26-4 15-4 9-5 3-6 2-11z" fill="#0E0A08"/>
<path transform="translate(598,59)" d="m0 0h20l20 2 14 4 27 13 19 10 20 10 18 10 23 13 25 15 14 10 1 2-4-1-14-8-13-8-24-13-10-6-16-8-35-18-28-14-14-5-11-2h-38l-24 3-23 5-20 6-26 9-10 4-2-1 14-8 12-5 12-6 25-7 24-4z" fill="#F2B292"/>
<path transform="translate(364,1068)" d="m0 0 5 1 3 1 1 5-3 3-5 2-1-2-7 1 2 6 3-1h3l-1 3-25 14-11 9-6 9-4-2-7-8-13-10 4-4 27-13z" fill="#FCF9F7"/>
<path transform="translate(895,223)" d="m0 0 7 4v2l4 2 10 11 8 13 5 12 3 14 1 16 2 59 2 44v43l-2 26-3-2v-48l-2-30-3-27-2-23-1-12h1l1-14v-24l-2-17-6-16-7-12-8-10-8-9z" fill="#EDA585"/>
<path transform="translate(316,561)" d="m0 0 3 1 12 20 1 5h-2l-2 8-11 23-3 8-1 15 3 5-1 4-4-2-5-8-4-11-1-5v-19l4-16 6-16 4-11z" fill="#F3B491"/>
<path transform="translate(580,504)" d="m0 0 1 3-3 6v3l-9 6-19 6-27 5-38 3h-44l-29-3-9-2 1-2-2-2v-3l23 2 18 1h38l35-2 33-4 16-4 8-4z" fill="#120C09"/>
<path transform="translate(941,513)" d="m0 0h9l5 4 4 10 3 20v23l-4 27-4 15-2 1v-11l5-31v-25l-3-10-3-4h-6l-8 6-8 11-7 12h-2v-40l5-1 12-6z" fill="#FBF2EC"/>
<path transform="translate(300,518)" d="m0 0h9l9 3 4 6v7l-3 8-3 5-4-2-7-4h-8l-7 4-2 4-1 6v14l3 18 4 14v6l-2-2-6-16-5-16-2-10v-23l3-10 6-8 7-3z" fill="#FEE8D1"/>
<path transform="translate(559,77)" d="m0 0h39l21 3 21 6 35 16 28 13 4 3-5-1-62-26-16-5-14-3-9-1h-35l-18 2-21 4-21 7-23 11-13 9-5 4-6 7h-2l-2 4-7 7-9 11-10 12-11 16-5 6-4 2 2-5 10-14 8-10 11-14 12-13 7-8 9-9 15-10 22-11 24-8 21-4z" fill="#F8D0B6"/>
<path transform="translate(696,512)" d="m0 0 3 4 4 7 12 6 18 4 21 3 19 1h34l31-2 28-4 16-5 5-1-1 4h-2l-2 4-7 5-12 4-6 1-46 1-25-1-13-1-3-1-20-1h-12l-14-1-16-5-6-3-5-8-1-4h2l-2-4z" fill="#E58771"/>
<path transform="translate(718,392)" d="m0 0 2 1-8 7-5 5 22-10 5-2-9 9 16-6 9-2v2l-5 3 18-3 2 2-1 1h49v1l-29 1-12 3-16 1v1l-17 2v2l-36 4-25 3h-13v-1h8l1-7 3-3v-5l5-4 3-1-2 4-3 3-1 3 10-5 9-5-2 4-5 5 7-2 17-9z" fill="#E68C74"/>
<path transform="translate(301,648)" d="m0 0h2l8 10 8 11 9 9 4 7 2 9 1 16 1 5-6-1-13-10-8-10-5-10-2-9-1-9z" fill="#FEEBD4"/>
<path transform="translate(667,701)" d="m0 0h7l8 3 27 18 14 10 10 8 10 9 1 4h-5l-4-4-8-7-4-4v-4l-5-2-9-7-5-3-7-1-15-8-3-1h-11l-17 5h-18l-11-3-8 1-9 7-2 3-2-1 3-9 4-6 6-5 10 1 8 1 20-1 6-2z" fill="#FCF8F4"/>
<path transform="translate(437,407)" d="m0 0h51l49 3 50 4 6 1v2l4 2-6 2 2 2-3 1-9-2-50-4-66-4h-14l-1-3-8-1v-2h-5z" fill="#151413"/>
<path transform="translate(523,112)" d="m0 0h5v2l-8 7-13 13-9 12-8 13-11 19-15 27-10 19-11 21-13 21-5 6-3 1 2-6 12-23 5-13 7-15 3-3 8-13 5-9 3-3 16-32 3-5 4-4 7-9 12-13 9-9 5-2z" fill="#0F0B08"/>
<path transform="translate(577,96)" d="m0 0 21 2 26 8 12 6 4 4-5-1-19-7-17-4-6-1-19-1-14 1-13 4-13 7-11 9-8 8-13 17-13 21-13 22-9 15-4 8-1 5h-3l-3 5-1-3 8-16 13-24 14-24 12-18 12-13 12-12 13-9 15-6 8-2z" fill="#F7D0B6"/>
<path transform="translate(710,101)" d="m0 0 1 2h7l25 13 23 13 14 8 9 6 7 4 1-1-4-4 5 2 10 8 3 3-1 2-16-8-19-7-24-10-23-9-13-4 4 2v2l-12-3-2-2-4-3-8-4v-2l6 1 9 3h3l7-1 2 3-1-4h-4l-1-6-4-1z" fill="#563922"/>
<path transform="translate(768,419)" d="m0 0h25l16 3 12 5 11 7 5 4 3 4v3l-6-2-7-6-12-6-15-3-8-1h-17l-20 3-27 9-23 11v-3l12-9 17-10 13-5 12-3z" fill="#150E0A"/>
<path transform="translate(325,282)" d="m0 0 1 3-10 21-5 14-3 10-3 16v35l2 17 1 25v16l-1 11v20l2 8 5 10 5 6 2 6-4-2-8-10-5-11-2-8v-23l1-15v-23l-3-26-1-13v-10l2-19 3-15 8-24 6-11 4-6z" fill="#EEA586"/>
<path transform="translate(766,406)" d="m0 0h20l16 1 3 3-3 4-35 2-57 8h-5l1-6h-2l1-3-2-2z" fill="#0E0E11"/>
<path transform="translate(380,722)" d="m0 0 1 3h2l6 29 8 28 7 23 2 7 4 9 8 14 9 14 8 13 10 13 9 11 7 8h-3l-9-10-11-14-12-15-12-17-10-15-15-29-5-12v-4h2l1-2 3 3 2 7h2l-7-21-6-24-2-14z" fill="#FDF2E2"/>
<path transform="translate(921,588)" d="m0 0h1v5l3 1 2 5h-2l9 19 3 14v11l-3 8-2 2-7-1-8-5 1-29 2-28z" fill="#E78A71"/>
<path transform="translate(484,428)" d="m0 0h32l18 4 11 6 4 5-7-1-10-4-10-2h-28l-16 3-15 6-15 8-17 11-4 1 2-4 11-10 13-10 14-8z" fill="#0F0F11"/>
<path transform="translate(678,41)" d="m0 0 9 3 5 3 7 3 9 4 7 3 23 12 21 12 36 24 7 5 6 3 9 8 8 7 9 9 8 7 2 4h2l9 11 2 3-2 4 5 8 2 6-3-1-11-16-3-7-7-9-13-13v-2l-4-2-8-7-3-1v-2l-5-2-10-8-16-12-11-7-3-2v-2l-7-2-9-6h-2v-2l-9-3-4-3h-3l-3-3-10-5-10-2-1-3-6-2-15-9-8-5z" fill="#584229"/>
<path transform="translate(740,446)" d="m0 0 2 1-2 6 5-2h5l2 12 3 5v2l-16-4 1 3 4 2v4l-12-3-3-1-14-1-5-3-1-5 2-4 12-6z" fill="#090606"/>
<path transform="translate(933,1134)" d="m0 0 4 4 12 23 10 23 4 12v4h-14l-13-38-1-2z" fill="#FCF8F6"/>
<path transform="translate(474,456)" d="m0 0h2v13l7 8v1h-11l-1 5-10-3-5-3h-7l-7 3h-17l-2-2 11-4 12-9 7-7 5-1 1 1v6h-2v2h3v-2z" fill="#0A0C10"/>
<path transform="translate(628,45)" d="m0 0h14l18 2 20 6 7 3v2l5 1 12 5 12 6 7 2 4 4 6 4 3 1v2l5 2 3 3 4 2v2l3 2v2l5 2 5 4v2l-4-1-17-12-19-12-5-3v-2l-6-2-12-6-12-3-30-9-29-6z" fill="#563F28"/>
<path transform="translate(542,398)" d="m0 0h2v2l7 2 6 4 10 4-4-5-6-5 2-1 14 8 6 2h4l-4-4 1-2 4 3 4 1v2l9 3-4-6v-2l6 2 5 6 3 2-4 2h-10l-18-2-67-5-20-1v-1l8-1-3-2 17-1h18v-2l9 2 8 3 4-1-7-5z" fill="#F4BA99"/>
<path transform="translate(440,204)" d="m0 0h2l-1 6-8 17-8 14-8 11-18 21-11 1 2-4 9-11 26-36 12-15z" fill="#F3B694"/>
<path transform="translate(583,60)" d="m0 0h12v1h22l21 3h5l14 6 12 6v2l-6-2-18-8-15-3h-38l-24 3-23 5-20 6-26 9-10 4-2-1 14-8 12-5 12-6 25-7 24-4z" fill="#F1AF8D"/>
<path transform="translate(895,741)" d="m0 0h2v9l-6 29-8 26-7 16-9 16-8 12-10 14-4 2 7-11 8-13 8-17 6-15h2l4-16 2-6 2-18 4-7h2v-10l3-9z" fill="#FDF1E0"/>
<path transform="translate(676,596)" d="m0 0h11l8 5 3 3 1 7-4 8-4 4h-7l-6-5-4-8-5-1-10 8-1-3 7-9 7-7z" fill="#050303"/>
<path transform="translate(710,61)" d="m0 0 8 1 13 7 10 5 11 6 9 5 4 2v2l5 2 10 7 11 8 10 8 9 6v2l4 1 11 9v2l3 1 7 8 7 7 6 9-1 3-8-10-11-12-8-8-17-13-11-9-16-12-4-1 2 4-4-2-8-6-12-8-12-6-8-5h-6l-3-2-9-3-8-4 3-1 6 3-2-4z" fill="#352815"/>
<path transform="translate(694,780)" d="m0 0h10l-1 2-17 6-14 2h-48l-22-3-6-3v-1h52l37-2z" fill="#F2B28F"/>
<path transform="translate(759,449)" d="m0 0h7l3 9v2l6 1 1-4 3-4 11-1 3 3-1 8h-2l-2 5-3 4-9 2-11-2-6-5-1-7h-2v-9z" fill="#61482F"/>
<path transform="translate(900,257)" d="m0 0 4 1 6 12 3 9 4 8 3 3 3 10 2-1 1-10h1v24l-1 15h-1l1 11v12l-3-2 1-1v-8l-4-14-8-20-12-25-3-5 1-2 5 6 10 17 1 1 1-2v-7l-6-13v-2h-2l-7-14z" fill="#513B23"/>
<path transform="translate(583,562)" d="m0 0h1l-1 7-9 19-3 12v11l3 15 8 16 4 2 3 3v2l-6-1-10-9-6-10-4-12-1-5v-10l4-14 8-14 8-11z" fill="#0F0B08"/>
<path transform="translate(608,596)" d="m0 0 7 1 6 5 6 12-1 4-5-5-2-3h-2l-5 8-5 5-6 1-6-5-2-4v-6l4-6 6-5z" fill="#0B0706"/>
<path transform="translate(937,514)" d="m0 0 4 1-1 4-2 18-8 10-6 10-2 4h-2v-40l5-1z" fill="#F3B693"/>
<path transform="translate(510,453)" d="m0 0 5 1-1 11-2 5-4 3-9 3h-9l-6-2-3-3-1-3v-10l6-4h4l1 4 3 5 6 1 2-7 2-3z" fill="#543F27"/>
<path transform="translate(706,561)" d="m0 0 4 2 8 9 6 10 4 12v18l-5 14-7 9-7 6h-2l2-6 6-12 4-13v-18l-4-12-6-12-3-5z" fill="#100B08"/>
<path transform="translate(941,658)" d="m0 0h4v14l-3 25-4 9-5 5-3 2-4-1 4-25 4-12 4-10z" fill="#FCF8F4"/>
<path transform="translate(784,400)" d="m0 0h102v3l-99 3-21 1-19 2h-11l3-2 15-2v-1l21-1v-1z" fill="#FBDBC1"/>
<path transform="translate(672,468)" d="m0 0h4l1 6-2 11 5 1-1 8 4 23 7 21-3 1-2 4-3 1-4-5-2-3-1-15-3-32-1-20z" fill="#EFAB8A"/>
<path transform="translate(523,112)" d="m0 0h5v2l-8 7-13 13-9 12-8 13-11 19-10 18-4-2 1-4 17-34 3-5 4-4 7-9 12-13 9-9 5-2z" fill="#0E0A07"/>
<path transform="translate(368,470)" d="m0 0h3l-1 6-2 4-4 2-6 1v2h-2l-2 11-1 10-1 18-2 11-4 15-3 1v4h-2l-1-9 4-13 2-13 1-11 1-24 14-10z" fill="#FDF1E0"/>
<path transform="translate(740,745)" d="m0 0 12 4 5 9 12 10 1 6-1 2h-6l-16-5-6-1v-2h-8l-8-2-1-3 5-2 22-1-2-4-9-9z" fill="#070505"/>
<path transform="translate(300,548)" d="m0 0h5l8 7-1 5-8 5 4-1h2l-3 9-6 14-4 9h-1l-2-19v-17l3-9z" fill="#E28470"/>
<path transform="translate(439,103)" d="m0 0 2 3-8 7-10 10-10 13-11 17-7 15-5 13-6 22-2 17-2 4-3 10-10 18-10 14-3 2 2-5 9-14 11-23 4-14 2-15 6-21 9-20 9-16 12-16 11-12 7-7z" fill="#E38470"/>
<path transform="translate(664,452)" d="m0 0h2l3 9 4 28 4 44-1 3-5-1-2-10-3-42-2-16z" fill="#FEF2E0"/>
<path transform="translate(548,93)" d="m0 0 4 1-1 5h-3v3l-14 7-6 4-12-2-1 3h-2l-1 2 2 3-5 1h-3l-4 2h-2v-5l4-3h2v-6h5v-3l5-2 11-2 1-2 12-3 6-2z" fill="#584229"/>
<path transform="translate(925,599)" d="m0 0 4 1 7 8 5 10 3 16v14l-4 8-5 3h-7l-4-2 2-5h6l3-5 1-4v-11l-3-14-8-17z" fill="#130D0A"/>
<path transform="translate(485,104)" d="m0 0 4 2-11 9-8 7-9 9-8 7-7 7-5 7-3 5-8 9-1 4-2 2-5 2-5 5-2-1 7-9 10-14 12-14 11-12 7-8h2l1-3 13-10z" fill="#0B0706"/>
<path transform="translate(314,419)" d="m0 0h1l-1 10-4 13h3l4-8 1 4-4 14v17l3 16 4 10 2 4v4l-4-2 2-1-5-9-5-6-4-9-1-6v-20h2l1-20 3-7z" fill="#553C25"/>
<path transform="translate(282,533)" d="m0 0 4 5 4 3h2v3l-3 3-2 8v14l3 18 4 14v6l-2-2-6-16-5-16-2-10v-23l2-6z" fill="#FCEFDE"/>
<path transform="translate(352,377)" d="m0 0 2 1-6 10-4 6v11l-1 12 2 4h7l3-3-1 7-10 22-2-1-5-33v-12l8-13z" fill="#FDEFDE"/>
<path transform="translate(642,92)" d="m0 0 5 1 45 19-1 3 6 2 3 3 16 8 10 7-2 1-31-13-13-5 1-2-4-3 1-1-4-2-2-4-5-1-6-3-8-2-9-4v-2l-3-1z" fill="#543A23"/>
<path transform="translate(670,708)" d="m0 0h7l1 1 12 2 4 1 15 10 14 10 10 8 10 9 1 4h-5l-4-4-8-7-4-4v-4l-5-2-9-7-5-3-7-1-15-8-3-1h-11l-17 5h-18v-1l13-1 5-2 13-4z" fill="#FEF0DC"/>
<path transform="translate(895,223)" d="m0 0 7 4v2l4 2 10 11 8 13 5 12 3 14v35l-1-4h-2l1-21h-2l-2-12-6-18-7-14-9-12-9-10z" fill="#F0AE8D"/>
<path transform="translate(732,393)" d="m0 0 2 1-10 8 20-7 6-1v2l-5 3 18-3 2 2-1 1 8 1-4 2-29 3-8 1-1 1-16 1-2-1v2h-6l1-4 22-10z" fill="#E78A72"/>
<path transform="translate(910,460)" d="m0 0h1l2 36v17l-4-5-3-6-4-2v-29l6-8z" fill="#E78C73"/>
<path transform="translate(940,364)" d="m0 0h1l1 51v22l-1 21-2 15-2-2-2 3v-13l1-18 1-37 1-13 1-4z" fill="#342715"/>
<path transform="translate(574,66)" d="m0 0h15l7 2-5 5-8 2-20 2-20 3h-5l4-2 11-3-11-1 3-2 23-5z" fill="#362915"/>
<path transform="translate(577,96)" d="m0 0 21 2 26 8 12 6 4 4-5-1-19-7-17-4-6-1-19-1h-11l-3-1-11 3-8 1 2-2 14-5 5-1z" fill="#EFA989"/>
<path transform="translate(696,512)" d="m0 0 3 4 4 7 12 6 18 4 28 4-4 3h-19l-14-1-16-5-6-3-5-8-1-4h2l-2-4z" fill="#E78970"/>
<path transform="translate(750,422)" d="m0 0 4 1 1 2 12 2v1l-15 3-24 8-23 11v-3l12-9 17-10 13-5z" fill="#121112"/>
<path transform="translate(668,711)" d="m0 0h11l16 8 7 2 5 2 9 6 7 5 2 5 2 3-5-1v-2h-3v-2h-3v-2l-4-1-6-5-8-3-17-9-5-1h-12l-10 2h-22l-1-2h20z" fill="#EA8D71"/>
<path transform="translate(332,294)" d="m0 0 1 3-9 15-2 8-4 12h3v4h-2l-2 9h-3l1-12-2-1-2 5-4 2 1-4v-10l5-14 1 4 3-1 6-9 7-8z" fill="#573A23"/>
<path transform="translate(589,66)" d="m0 0 13 1 12 3 7 5 1 2 2-1 1 5-10-1-17-2-35-1v-1l20-2 9-3 3-2-6-2z" fill="#573B24"/>
<path transform="translate(628,45)" d="m0 0h14l18 2 20 6 7 3-3 1-5-1v3l8 2 8 3-3 1-29-9-30-7-6-1z" fill="#513C25"/>
<path transform="translate(666,552)" d="m0 0 10 1 11 4 8 6 3 3v3l-16-1-9-2-6-5-2-5z" fill="#FEF3E2"/>
<path transform="translate(578,59)" d="m0 0h20v1l-24 2-24 4-25 7-21 10-16 8v2l-14 5-4-1 5-5 24-12 25-9 19-6 12-3z" fill="#48351F"/>
<path transform="translate(799,178)" d="m0 0 6 2 11 9 19 19 13 17 10 13 8 10 13 18-1 2-13-13-9-11-4-4-4-8-4-6-2-4-2-5h-2l-7-9-3-3-5-6-6-5-5-5-6-5-7-5z" fill="#FADAC0"/>
<path transform="translate(380,722)" d="m0 0 1 3h2l6 29 8 28 7 23 2 7 4 9 1 4-4-4-6-15-3-10-2-9-1-4h-2l-6-18-6-24-2-14z" fill="#FEF3E2"/>
<path transform="translate(772,399)" d="m0 0h41v1l-29 1-12 3-16 1v1l-17 2v2l-29 3h-8l1-3-2-1 6-2v1l5 1v-2l18-1 5-1 13-2 24-2z" fill="#F3B694"/>
<path transform="translate(797,452)" d="m0 0 5 1 11 6 4 4-1 4-10 5-17 4v-3l6-5 3-5z" fill="#FCF5F0"/>
<path transform="translate(477,105)" d="m0 0 3 1-5 5-10 8-6 7h-2l-2 4-7 7-9 11-10 12-11 16-5 6-4 2 2-5 10-14 8-10 11-14 12-13 7-8 9-9z" fill="#FBDCC4"/>
<path transform="translate(918,378)" d="m0 0 2 3v4h2l3 13 1 70 3 3 2 13-8 3h-3v-7l2-9 1-20v-29l-1-20-4-19z" fill="#332714"/>
<path transform="translate(884,796)" d="m0 0 1 3-8 20-10 18-8 12-10 14-4 2 7-11 8-13 8-17 6-15h2l2-8h2l2-4z" fill="#FCF4ED"/>
<path transform="translate(361,454)" d="m0 0 5 2 3 5 3 8-6 4-15 11-3 1-2-2 1-5 9-10 5-6z" fill="#E78D75"/>
<path transform="translate(629,95)" d="m0 0 7 2 2-1 1 2 10 2 20 7 10 5v2l3 3-7-1-40-13v-2l-2-1-6-4z" fill="#533E26"/>
<path transform="translate(677,588)" d="m0 0h15l5 2v1l-13 1-10 4-9 10-11 15h-1v-7l6-12 9-10z" fill="#FEF4E3"/>
<path transform="translate(408,222)" d="m0 0 2 1-10 22-10 19-5 8-7 2 1-5 8-14 9-15 7-11z" fill="#F8D5BC"/>
<path transform="translate(943,541)" d="m0 0 3 2 2 9v30l-3-3-7-21-2-4v-5z" fill="#E78B72"/>
<path transform="translate(520,450)" d="m0 0 10 2 8 4 1 1v5l-5 4-11 4-6 2 2-5 1-3z" fill="#FCF4F0"/>
<path transform="translate(753,89)" d="m0 0 9 3 8 6 2 2 4 1v2l4 2 15 14 9 10 1 3 5 4 4 5-1 4-9-9v-3l-4-1-1-3-4-2-8-10-10-9-15-11-9-7z" fill="#533E26"/>
<path transform="translate(745,451)" d="m0 0h5l2 12 3 5v2l-10-3-10-1-4-3v-5l5-4z" fill="#FCF4EF"/>
<path transform="translate(693,109)" d="m0 0 6 1 9 3h3l7-1 2 3 3-1 8 4 8 3 5 3v3l-8-1-21-7 4 2v2l-12-3-2-2-4-3-8-4z" fill="#553F27"/>
<path transform="translate(598,59)" d="m0 0h20l20 2 14 4 27 13 19 10 9 5-3 1-19-10-12-6-7-3-12-6-10-3-2-1-20-2-5-1h-23l1-2z" fill="#FBDDC4"/>
<path transform="translate(711,985)" d="m0 0h7v3l-5 1 1 5h-2l-1 2-4 1-6 1 2-4-13 2-9 4-3-1v-1l-8-1 2-2 10-3 14-2 4-2 9-2z" fill="#080504"/>
<path transform="translate(560,100)" d="m0 0h5l-2 2-16 5-13 7-11 9-8 8-9 12h-2l-1-5 11-12 12-12 13-9 10-2z" fill="#FADBC3"/>
<path transform="translate(379,325)" d="m0 0 2 1-1 15h-2v20l-2 2-6-2v-2h-3l-1-3 4-9 3-9 5-12z" fill="#FEF5E4"/>
<path transform="translate(462,129)" d="m0 0 4 2-3 3h-2l-1 8-9 7-4 6-16 12-2 1 2-4 7-8 7-11 14-14z" fill="#523D25"/>
<path transform="translate(712,524)" d="m0 0 8 1 19 3-2 1-1 4 25 2 15 1h52v1l-21 1h-34l-19-1-27-4-15-4-2-1z" fill="#322619"/>
<path transform="translate(474,456)" d="m0 0h2v13l7 8v1h-7l-11-4-6-5 1-5z" fill="#FBF3EE"/>
<path transform="translate(501,428)" d="m0 0h15l18 4 11 6 4 5-7-1-10-4-10-2-27-1v-1l15-1-1-1-9-1z" fill="#160F0B"/>
<path transform="translate(306,318)" d="m0 0h2l-2 10-2 14-1 11v28l2 14 1 4v21l-1 10h-1l-1-22-3-26-1-13v-10l2-19 3-15z" fill="#FBDDC5"/>
<path transform="translate(300,548)" d="m0 0h5l8 7-1 5-8 5h-2v2l-7 1v-12l3-6z" fill="#E99075"/>
<path transform="translate(895,333)" d="m0 0h2l7 22 5 22v8l-3-4-10-30-3-11 1-6z" fill="#FCECDA"/>
<path transform="translate(566,86)" d="m0 0 7 3h14l5 2 7 1v1l-18 1 9 2v1h-24l-7-2 1-2-2-2 4-1v-3z" fill="#362915"/>
<path transform="translate(309,519)" d="m0 0 7 1 5 5 1 2v7l-3 8-3 5-4-2-7-4-6-1v-1h7l4-1 2-5 2-2-1-7z" fill="#F0AD8D"/>
<path transform="translate(900,257)" d="m0 0 4 1 6 12 3 9 4 8 3 3 3 10 2-1 1-10h1v24l-2 4-3-2h2l-3-10-6-16-6-13v-2h-2l-7-14z" fill="#4F3A23"/>
<path transform="translate(514,1011)" d="m0 0 4 2 1 6 3 1 5 6v2h2l2 4 7 6v2l5 2 7 6 7 4v2l5 2 8 4v2l7 2 3 3-6-1-17-9-15-11-12-11-11-13-5-8z" fill="#EDA587"/>
<path transform="translate(332,259)" d="m0 0h2l-1 12-4 10-3 4-1-2-4 4-6 10-3 4 1-5 6-17 8-12z" fill="#533C25"/>
<path transform="translate(806,422)" d="m0 0 9 2 13 7 9 7 3 4v3l-6-2-7-6-12-6-15-3v-2l3-1z" fill="#140F0A"/>
<path transform="translate(437,407)" d="m0 0h51v1l-12 2 1 2 3 2h-29l-1-3-8-1v-2h-5z" fill="#1D1916"/>
<path transform="translate(487,436)" d="m0 0h14l3 2-1 1-13 1-1 3-20 4-9 4h-3v-2h2v-3l16-7z" fill="#E99B81"/>
<path transform="translate(909,390)" d="m0 0h1l2 7v8h-15l-9-1-6-7v-2l5-1 7 4 12 1z" fill="#FCEFDD"/>
<path transform="translate(684,88)" d="m0 0 7 1 25 13v1h-5l4 4-1 2-6-2-1-4-4 1-4-2v-3l-4 1-8-6-4-4z" fill="#573A23"/>
<path transform="translate(776,96)" d="m0 0 7 4 8 6 10 8 9 6v2l4 1 11 9v2l3 1 7 8 7 7 6 9-1 3-8-10-11-12-8-8-17-13-11-9-16-12z" fill="#332714"/>
<path transform="translate(383,1061)" d="m0 0 2 1-3 9-9 6-1 3-6 2v2l-6 2-2 1-2-2v-3l1-3 7-2 2 2 6-4-1-3 1-2-4-1-1-2z" fill="#FDF3E4"/>
<path transform="translate(823,472)" d="m0 0 11 1 10 2-1 2-19 4-5 3-5 2h-6l5-4 1-3-2-2z" fill="#E58871"/>
<path transform="translate(737,110)" d="m0 0 6 2 28 16 19 12 9 7-3 1-15-9-13-8-20-11-2-4-9-5z" fill="#F6CBB1"/>
<path transform="translate(568,414)" d="m0 0h19l6 1v2l4 2-6 2 2 2-3 1-9-2-12-1-7-2 2-2 4-2z" fill="#0E0E0F"/>
<path transform="translate(435,404)" d="m0 0h58l5 1-2 2-60 1-10-1 4-2z" fill="#FDF8EE"/>
<path transform="translate(532,981)" d="m0 0 9 1 16 6 13 5 4 3h-11l-27-9-4-3z" fill="#0C0806"/>
<path transform="translate(338,551)" d="m0 0h1v15l1 20h-2l-10-20 2-4z" fill="#F1B292"/>
<path transform="translate(307,423)" d="m0 0h1v16l-1 11v20l2 8 5 10 5 6 2 6-4-2-8-10-5-11-1-5 1-24z" fill="#EC9F82"/>
<path transform="translate(620,552)" d="m0 0 5 1-2 5-7 8-5 4-8 1 1-5 6-9z" fill="#FEF2E0"/>
<path transform="translate(678,41)" d="m0 0 9 3 5 3 7 3 9 4 7 3 17 9v2l-6-1-8-4-10-2-1-3-6-2-15-9-8-5z" fill="#563F27"/>
<path transform="translate(828,135)" d="m0 0 4 2 13 13 4 2 8 9-2 5 5 8 2 6-3-1-11-16-3-7-7-9-10-10z" fill="#563922"/>
<path transform="translate(613,17)" d="m0 0 15 1 21 5 6 2v3l2 1-5 1-18-6-26-5v-1z" fill="#EEA889"/>
<path transform="translate(642,92)" d="m0 0 5 1 45 19-1 3 6 2 3 4-5-2-18-9-5-2v-2l-5-1-6-3-8-2-9-4v-2l-3-1z" fill="#3A2C18"/>
<path transform="translate(687,716)" d="m0 0 15 5 5 2 9 6 7 5 2 5 2 3-5-1v-2h-3v-2h-3v-2l-4-1-9-7-9-6-7-4z" fill="#F3B491"/>
<path transform="translate(609,592)" d="m0 0h9l7 6 5 12v8h-2l-8-16-5-4-9-2z" fill="#FDF5ED"/>
<path transform="translate(484,428)" d="m0 0h17v2l10 2-1 2-15 1-1 1h-11l-4-4z" fill="#060507"/>
<path transform="translate(904,332)" d="m0 0 3 1 12 21h3l2 3 1 4v10l-3-3-6-14-3-2-2 2-7-20z" fill="#4A351F"/>
<path transform="translate(706,721)" d="m0 0 4 2 13 9 10 8 10 9 1 4h-5l-4-4-8-7-4-4v-4l-5-2-9-7-3-2z" fill="#FCE0C8"/>
<path transform="translate(678,55)" d="m0 0 6 1 18 7 17 9 1 4-6-2-16-8-19-7z" fill="#CF6A70"/>
<path transform="translate(820,1062)" d="m0 0 6 1 18 6 9 4v1l-11-1 1 4 2 3-4-2-12-7v-2l-5-2-4-3z" fill="#FEF6E6"/>
<path transform="translate(418,838)" d="m0 0h2l7 11 8 13 10 13 9 11 7 8h-3l-9-10-11-14-12-15-8-11z" fill="#FCE5CE"/>
<path transform="translate(671,499)" d="m0 0 2 4 1 8 1 1 2 21-1 3h-4l-2-13v-23z" fill="#FDFAF7"/>
<path transform="translate(485,104)" d="m0 0 4 2-11 9-8 7-9 9v-3l6-7-5 3-2 4h-3v-2l5-5h2l1-3 13-10z" fill="#352815"/>
<path transform="translate(479,126)" d="m0 0 3 1-1 4-9 11-8 10-5 5-8 10-4 4 2-5 10-14 10-13 6-8z" fill="#563F28"/>
<path transform="translate(655,26)" d="m0 0 5 1 16 6 8 4-1 4-9-2-21-9z" fill="#F3B592"/>
<path transform="translate(314,419)" d="m0 0h1l-1 10-4 13h4l-3 13-1 17-2-1-1-9v-12l2-20 3-7z" fill="#332714"/>
<path transform="translate(365,351)" d="m0 0 1 4-7 13-11 17-10 16-2-1-1-7 1 2h3l2-6 8-13 7-10 3-3 3-6z" fill="#EA9377"/>
<path transform="translate(579,403)" d="m0 0 5 3 4 1v2l9 3-4-6v-2l6 2 5 6 3 2-4 2h-10l-6-1 4-2-13-2-1-2h6l-4-4z" fill="#E8967D"/>
<path transform="translate(546,66)" d="m0 0 4 1-7 1-1 3-12 3-7 3-16 6h-2v3l-16 6-2-1 14-8 12-5 12-6z" fill="#E48B74"/>
<path transform="translate(305,393)" d="m0 0h1l1 5 1 24-3 26-1 24-2-3v-23l1-15 1-1 2-31-2-1z" fill="#F0AD8C"/>
<path transform="translate(599,99)" d="m0 0 10 2 17 6 10 5 4 4-5-1-19-7-17-4-1-4z" fill="#EEA788"/>
<path transform="translate(440,141)" d="m0 0 3 2-11 13-12 17-7 9-4 2 2-5 10-14 8-10z" fill="#F9D2B8"/>
<path transform="translate(726,1047)" d="m0 0h1v6l-6 10-5 5-9 7-4 2-4-1 5-5h2v-2l12-9h2l2-5z" fill="#EDA787"/>
<path transform="translate(747,394)" d="m0 0h3v2l-5 3 18-3 2 2-1 1 8 1-4 2-20 2h-7l1-5-1-3z" fill="#E38672"/>
<path transform="translate(395,166)" d="m0 0 1 3-5 15-5 22-3 16-5 13-4 7-1-2 5-11 2-7 2-10 2-12 5-19z" fill="#4F3821"/>
<path transform="translate(439,103)" d="m0 0 2 3-8 7-10 10-10 13-4 6h-3l2-5 10-13 11-12 7-7z" fill="#E18170"/>
<path transform="translate(557,399)" d="m0 0 6 2 10 6 4 1 1 2 13 2 1 2h-17l-11-1-2-3 2-1 3 1-4-5-6-5z" fill="#F0AD8D"/>
<path transform="translate(899,452)" d="m0 0h1v20h2l1 7v18l-2-1-2 8-2-3z" fill="#1A1513"/>
<path transform="translate(827,407)" d="m0 0h11l-3 6h-24l-1-2-4-2 1-1z" fill="#04070D"/>
<path transform="translate(502,139)" d="m0 0 2 1 1 4-10 15-6 10-2-1v-6l10-16z" fill="#F2B493"/>
<path transform="translate(832,857)" d="m0 0 4 1-1 6h-2l-1 6h-2l-1 2-5 1-1-1 1-10 4-4z" fill="#EFAB8A"/>
<path transform="translate(672,595)" d="m0 0 2 1-9 10-11 15h-1v-7l6-12 3-3 4 1z" fill="#FCE3CC"/>
<path transform="translate(748,539)" d="m0 0h10l12 1 6 1 10 1 25 1v1h-41l-31-3v-1z" fill="#EFAB8A"/>
<path transform="translate(378,221)" d="m0 0 2 3-3 10-10 18-10 14-3 2 2-5 9-14 11-23z" fill="#DD7D70"/>
<path transform="translate(903,499)" d="m0 0 1 2 3 1 5 9v6l-4 3-6-8h-1l1-12z" fill="#FDF4E4"/>
<path transform="translate(598,59)" d="m0 0h20l20 2 5 1-1 3-20-2-5-1h-23l1-2z" fill="#FAD7BE"/>
<path transform="translate(614,701)" d="m0 0h16l10 3 12 1v1l-24 1-8-2h-15l3-2z" fill="#E99E86"/>
<path transform="translate(303,669)" d="m0 0 2 4v2h2l4 11 3 5 2 7 1 3h-3l-7-11-4-10z" fill="#FCEFDD"/>
<path transform="translate(850,400)" d="m0 0h36v3h-47l1-2z" fill="#FEECD6"/>
<path transform="translate(838,405)" d="m0 0m-52 1h52v1l-31 2 4 2v2h-24v-1l17-1-3-2 1-1-16-1z" fill="#010002"/>
<path transform="translate(770,137)" d="m0 0 12 4v2l9 1 5 3 1-1-4-4 5 2 10 8 3 3-1 2-16-8-19-7-7-3z" fill="#493720"/>
<path transform="translate(591,63)" d="m0 0h42l10 1 14 6 12 6v2l-6-2-18-8-15-3h-43z" fill="#EB9D81"/>
<path transform="translate(660,97)" d="m0 0 7 1 23 11 17 8-3 1-33-14-9-4v-2z" fill="#F8D7C0"/>
<path transform="translate(308,564)" d="m0 0h2l-3 9-6 14-4 9h-1v-14h4l1-2v-8l2-4 4-2z" fill="#EA9E83"/>
<path transform="translate(900,257)" d="m0 0 4 1 6 12 3 9 5 9 2 10-3-4-8-18v-2h-2l-7-14z" fill="#513925"/>
<path transform="translate(490,123)" d="m0 0 2 2-5 5-8 11-4 7-3 2 2-5 2-4-5 2 3-5 11-12h2v-2z" fill="#352815"/>
<path transform="translate(497,83)" d="m0 0m-3 1h3l-1 3-8 4v2l-14 5-4-1 5-5 8-4 11-2z" fill="#553F27"/>
<path transform="translate(418,383)" d="m0 0 1 2-18 12-9 7-2-1 4-5 3-5 17-9z" fill="#FDE6D0"/>
<path transform="translate(453,275)" d="m0 0h4l-2 6-6 12-10 14-2 2-3-1 9-12 8-16z" fill="#2C2014"/>
<path transform="translate(916,292)" d="m0 0 3 4 3 9 2 5v5l-3 1-4-9-3-5v-2h-2l-2-6 4 4z" fill="#332714"/>
<path transform="translate(899,710)" d="m0 0 2 3-1 19-2 6h-1l-2-6v-13l3-8z" fill="#FDF3E3"/>
<path transform="translate(772,399)" d="m0 0h41v1l-29 1-12 3h-18l4-2 14-1z" fill="#EEA98A"/>
<path transform="translate(799,178)" d="m0 0 6 2 11 9 19 19 6 8-3 1-7-9-3-3-5-6-6-5-5-5-6-5-7-5z" fill="#FDE5CD"/>
<path transform="translate(766,420)" d="m0 0h18l2 4-12 2h-8l1-3h-3v-2z" fill="#02060D"/>
<path transform="translate(469,129)" d="m0 0 4 3v-2h2l-2 4-7 11-4 3 2-4 2-5-7 6-3 3-5 4-2-1 5-5 5-4 6-8h4z" fill="#352815"/>
<path transform="translate(313,311)" d="m0 0 1 4 4-1-2 6-4 9-1 8-4 2 1-4v-10z" fill="#382A16"/>
<path transform="translate(325,282)" d="m0 0 1 3-9 19-3 1h-3l2-6 5-9 4-6z" fill="#E08271"/>
<path transform="translate(710,101)" d="m0 0 1 2h7l17 9 2 5-6-2-1-3-2 1-5-2-9-4v-2l-4-1z" fill="#392A16"/>
<path transform="translate(481,408)" d="m0 0 13 1 4 2h-2v2l-16 1-8-1 1-3z" fill="#010002"/>
<path transform="translate(696,662)" d="m0 0 5 1 10 6 9 9-3 1-11-7-10-8z" fill="#F9D4BA"/>
<path transform="translate(664,452)" d="m0 0h2l3 9 1 11-3-1v12h-1l-2-16z" fill="#FEEED8"/>
<path transform="translate(877,414)" d="m0 0 4 1h-3l2 6-1 5-3 3-9-5 3-1 2-5 5-2z" fill="#503821"/>
<path transform="translate(332,259)" d="m0 0h2v6h-3l-4 11-4 6h-2l-2 5-2 1 2-9 8-12z" fill="#332714"/>
<path transform="translate(762,395)" d="m0 0 13 1 32 2v1l-45 1 2-2z" fill="#523721"/>
<path transform="translate(573,147)" d="m0 0h6l-4 3-17 6-9 1 2-3v-2z" fill="#F9D6BE"/>
<path transform="translate(470,122)" d="m0 0h2l2 4-2 3 1 3h-3l-1 3-3 1-6 4 1-6 4-3-2-3z" fill="#563922"/>
<path transform="translate(693,109)" d="m0 0 6 1 17 7v3l3 1v2l-12-3-2-2-4-3-8-4z" fill="#352815"/>
<path transform="translate(810,478)" d="m0 0 5 1v2l-9 4-11 2h-9l1-2 8-1 6-3z" fill="#ECA587"/>
<path transform="translate(430,158)" d="m0 0 3 1-1 5-2 4-3 4-5 2-5 5-2-1 7-9z" fill="#3A2A18"/>
<path transform="translate(534,72)" d="m0 0h8v2l-17 5-18 6h-2v-2l18-7z" fill="#F4BD9F"/>
<path transform="translate(486,164)" d="m0 0h2v7l-10 16-2-2 1-5z" fill="#F9D4BA"/>
<path transform="translate(510,403)" d="m0 0h11v1h-10v3l8 1v1l-31-1v-1l8-1-3-2z" fill="#EFAA89"/>
<path transform="translate(549,97)" d="m0 0 3 1-4 1v3l-14 7-6 4-4-1 3-4h3l1-2 11-6z" fill="#362916"/>
<path transform="translate(395,779)" d="m0 0 2 3 7 23 2 7 4 9 1 4-4-4-6-15-3-10-2-9-2-4z" fill="#FFECD5"/>
<path transform="translate(396,424)" d="m0 0 2 2 7-1v3h5l-5 4-8 5h-2l2-5 1-3h-4z" fill="#4C341E"/>
<path transform="translate(396,529)" d="m0 0 11 2 10 2v2h6l-1 2h-12l-5-3-7 1z" fill="#ECA385"/>
<path transform="translate(580,504)" d="m0 0 1 3-3 6v3l-9 6h-2v-2l-5-1 3-2 8-4z" fill="#171412"/>
<path transform="translate(718,392)" d="m0 0 2 1-8 7-8 6-7 1 1-4 17-9z" fill="#EEAA8B"/>
<path transform="translate(486,146)" d="m0 0 2 1-2 5-19 38-2 1 1-5 16-32z" fill="#E9957B"/>
<path transform="translate(770,131)" d="m0 0h6l18 12 5 5-4-1-14-8-11-7z" fill="#DC7B70"/>
<path transform="translate(481,835)" d="m0 0h3l-1 4-3 7-7 11h-2l1-6 8-15z" fill="#1E160E"/>
<path transform="translate(852,158)" d="m0 0 4 2v3l-1 3 5 8 2 6-3-1-11-16z" fill="#48351F"/>
<path transform="translate(564,82)" d="m0 0h36v1l-19 2h-19l-3-2z" fill="#332714"/>
<path transform="translate(463,473)" d="m0 0 10 3-2 7-10-3-5-4 6-2z" fill="#130D0A"/>
<path transform="translate(682,712)" d="m0 0 5 1 6 1h4l9 6v2l-9-1-15-8z" fill="#FDE6CF"/>
<path transform="translate(332,294)" d="m0 0 1 3-9 15h-2l-1 4-4 2 2-8 7-9 4-4z" fill="#573D28"/>
<path transform="translate(464,191)" d="m0 0 1 3 3 1-1 4-3 6-1-2-5 3-4 6-1-2 8-14z" fill="#76503F"/>
<path transform="translate(708,112)" d="m0 0 7 1 3-1 2 3 4 2 3 1v2h4v3l-9-2-6-2v-2l-8-2z" fill="#513620"/>
<path transform="translate(813,884)" d="m0 0 2 1-1 9-2 6h-2v2l-5-1 1-5z" fill="#0B0806"/>
<path transform="translate(680,157)" d="m0 0 4 1-1 1 58 1v1h-66v-2z" fill="#523E26"/>
<path transform="translate(676,596)" d="m0 0h11v1l-12 2-7 6 1 4-10 8-1-3 7-9 7-7z" fill="#573A24"/>
<path transform="translate(386,188)" d="m0 0h1l-1 7-2 10-2 15-3 3-1-3 2-8 2-15 2-8z" fill="#CF6A70"/>
<path transform="translate(778,454)" d="m0 0h7v7l-2 3-7-1v-6z" fill="#FDF0DE"/>
<path transform="translate(543,408)" d="m0 0h11l6 2h3l3 2h-15l-23-2v-1z" fill="#FDE3CB"/>
<path transform="translate(370,311)" d="m0 0 2 1-6 10-9 11-4 4-2-1 8-11 6-9h2l2-4z" fill="#F5D6BE"/>
<path transform="translate(880,168)" d="m0 0 2 4-2 19-1 4-3-1 1-4-1-1 1-11z" fill="#342717"/>
<path transform="translate(740,446)" d="m0 0 2 1-2 4v3l-7 3h-3l-1-7z" fill="#121112"/>
<path transform="translate(307,423)" d="m0 0h1v16l-2 30h-1l-1-6v-15z" fill="#E08170"/>
<path transform="translate(748,403)" d="m0 0h6v2l2 1-17 2v2l-6-1-4-2 3-2z" fill="#F2B390"/>
<path transform="translate(601,28)" d="m0 0 13 1 11 2-1 2h-37v-1l15-2z" fill="#F9D7BD"/>
<path transform="translate(559,519)" d="m0 0 8 1-1 3-9 3-4-1-4-2v-2z" fill="#151312"/>
<path transform="translate(759,420)" d="m0 0h7l-2 1v2h3v2l8 1v1h-11l-10-1-1-4z" fill="#130D09"/>
<path transform="translate(915,349)" d="m0 0 5 5h3l2 7v10l-3-3-6-14z" fill="#332714"/>
<path transform="translate(753,749)" d="m0 0 4 2 6 7 4 6-1 2-8-6-5-7z" fill="#EFAA8B"/>
<path transform="translate(301,648)" d="m0 0h2l4 5 1 4-3 5h-2v5l-2-1z" fill="#F9DECB"/>
<path transform="translate(287,577)" d="m0 0h1l5 21 1 9-2-2-6-16-1-6z" fill="#FAE0CB"/>
<path transform="translate(504,455)" d="m0 0h5v8l-3 3-5-1-1-3 3-6z" fill="#FCEBD9"/>
<path transform="translate(532,433)" d="m0 0 6 1 9 6 2 3-7-1-11-5z" fill="#1B150E"/>
<path transform="translate(475,404)" d="m0 0h18l5 1-2 2h-32v-1l10-1z" fill="#FFECD5"/>
<path transform="translate(668,711)" d="m0 0h11l6 3-2 1-5-2h-9l-7 2-1 2-7 1h-22l-1-2h20z" fill="#F0A988"/>
<path transform="translate(613,17)" d="m0 0 15 1 1 2 7 1-1 3-27-5v-1z" fill="#E68D76"/>
<path transform="translate(433,861)" d="m0 0 5 5 7 9 9 11 7 8h-3l-9-10-11-14-5-6z" fill="#F8D0B5"/>
<path transform="translate(732,464)" d="m0 0 7 2 1 3 4 2v4l-12-3-3-2 5-2-3-1z" fill="#151313"/>
<path transform="translate(869,268)" d="m0 0 4 2 8 13 5 11-1 2-9-14-4-6v-5h-2z" fill="#F9D1B7"/>
<path transform="translate(628,867)" d="m0 0 5 1-1 5-5 6-6 5h-2l2-5 2-3h2l2-4z" fill="#F8D3BB"/>
<path transform="translate(397,417)" d="m0 0h2l-1 5-5 5-5 3-2 2 1-6 4-5z" fill="#E99D83"/>
<path transform="translate(514,127)" d="m0 0 2 3-10 13h-2l-1-5 9-10z" fill="#FAD5BB"/>
<path transform="translate(861,838)" d="m0 0 3 1-1 4-8 12-8 10-2-1 8-11 7-12z" fill="#FCE8D5"/>
<path transform="translate(926,279)" d="m0 0h1l1 5v7h2v17l-3 3z" fill="#EB9E82"/>
<path transform="translate(806,422)" d="m0 0 9 2-1 6-14-2v-2l3-1z" fill="#151313"/>
<path transform="translate(313,303)" d="m0 0h3l-1 6-6 12-2-3 2-9 3-5z" fill="#EFAB8B"/>
<path transform="translate(395,166)" d="m0 0 1 3-5 15-5 22h-1v-11l6-20z" fill="#4E3720"/>
<path transform="translate(680,100)" d="m0 0 5 3v2l5-1 6 2-1 3-5 1-13-6v-2z" fill="#4B351F"/>
<path transform="translate(520,352)" d="m0 0 9 3 5 4-10-1-16-3v-1z" fill="#E8967D"/>
<path transform="translate(906,638)" d="m0 0h1l1 13-1 1-1 7-3-2 1-4-1-1v-7z" fill="#FEF6E6"/>
<path transform="translate(773,90)" d="m0 0 5 1v2l6 2 11 8 3 1 7 7-4-1-18-12-10-7z" fill="#D16D70"/>
<path transform="translate(933,428)" d="m0 0h1l1 28 1 5-1 8-3-2z" fill="#E98B70"/>
<path transform="translate(424,404)" d="m0 0h11v1l-5 1 4 2h-24l-1-2z" fill="#F8D1B6"/>
<path transform="translate(376,396)" d="m0 0h1l1 12h-12l6-7z" fill="#FEF6E6"/>
<path transform="translate(636,149)" d="m0 0h14l1 2-14 1-7 1-3-1-12-1v-1z" fill="#F0AD91"/>
<path transform="translate(703,122)" d="m0 0 5 2 10 5 8 6-2 1-16-7v-2z" fill="#352815"/>
<path transform="translate(454,91)" d="m0 0h3l-1 3-8 6-3 3h-2l-1 3-3-3 5-5z" fill="#6C4534"/>
<path transform="translate(642,92)" d="m0 0 5 1 14 6 2 3-10-2-9-4v-2l-3-1z" fill="#3A2C18"/>
<path transform="translate(411,825)" d="m0 0 4 4 4 7-1 6-4-4-5-8z" fill="#FCEEDE"/>
<path transform="translate(608,709)" d="m0 0 1 4 5 1-4 4-6 5-1 2-2-1 3-9z" fill="#FEEBD3"/>
<path transform="translate(705,407)" d="m0 0 7 2v-2l8 2-4 3-6 1h-8l1-3-2-1z" fill="#EDA586"/>
<path transform="translate(542,398)" d="m0 0h2v2l7 2 6 4 5 2-2 3-6-2-8-1 3-3-7-5z" fill="#F0AC8B"/>
<path transform="translate(307,330)" d="m0 0h1l1 6v2l2-1-1 9-3 3-1 7h-1v-16z" fill="#533922"/>
<path transform="translate(316,251)" d="m0 0 1 2-7 16-4-1-2 1 2-5 8-11z" fill="#FAE6D6"/>
<path transform="translate(468,141)" d="m0 0 1 2-8 11-10 13-4 4 2-5 10-14z" fill="#DF8071"/>
<path transform="translate(362,1077)" d="m0 0 5 2 1 3h-2v2l-6 2-2 1-2-2v-3l1-3z" fill="#FDF6E7"/>
<path transform="translate(554,1054)" d="m0 0 7 1 5 3 4 2v2l7 2 3 3-6-1-17-9z" fill="#E79880"/>
<path transform="translate(902,680)" d="m0 0h2v13l-1 5-3-1-1-8 2-8z" fill="#FEF6E6"/>
<path transform="translate(764,482)" d="m0 0 22 1 1 2-2 1h-14l-6-1z" fill="#EFAB8A"/>
<path transform="translate(317,434)" d="m0 0 1 4-4 14-1 15h-1l-1-9-1-3 2-9z" fill="#46341E"/>
<path transform="translate(658,30)" d="m0 0 7 1 12 5 1 4-9-3-12-5z" fill="#ECA285"/>
<path transform="translate(677,588)" d="m0 0h15l5 2v1l-13 1-8 2 2-4z" fill="#FFECD5"/>
<path transform="translate(850,400)" d="m0 0h36v3h-17v-1l-19-1z" fill="#EFAC8B"/>
<path transform="translate(482,842)" d="m0 0h1v7l-2 6-4 2h-3l1-4z" fill="#F6C7AD"/>
<path transform="translate(862,422)" d="m0 0 5 1 8 5 4 4 6 5 1 3-4-2-15-12z" fill="#F0AF92"/>
<path transform="translate(479,348)" d="m0 0 19 4-1 6h-8v-1l5-1-10-4-6-2z" fill="#322619"/>
<path transform="translate(369,303)" d="m0 0 2 1-2 5-2 3h-2l-2 4-4 3h-2l2-4 7-10z" fill="#F8D1B7"/>
<path transform="translate(376,275)" d="m0 0 1 3-3 8-9 9-2 1 2-4 9-15z" fill="#F9D3B9"/>
<path transform="translate(423,164)" d="m0 0h2l-2 5-7 9-5 5-2 1 2-5 9-13h2z" fill="#E48B77"/>
<path transform="translate(860,163)" d="m0 0h3l7 11 3 4v7l-2-1-4-8-3-4-3-7z" fill="#F9D4BB"/>
<path transform="translate(607,591)" d="m0 0h10v1l-8 1-2 2 1 2-8 4-3-1 2-5z" fill="#F2B493"/>
<path transform="translate(356,345)" d="m0 0 2 4-3 5-7 7h-2l-1 3-2-1 11-15z" fill="#F1D5BF"/>
<path transform="translate(318,326)" d="m0 0 1 4-1 2h3v4h-2l-2 9h-3l1-10z" fill="#342714"/>
<path transform="translate(596,486)" d="m0 0 2 1-2 3 1 6-2 5-4-4-1 2 1-8 2-4z" fill="#EA9E83"/>
<path transform="translate(413,427)" d="m0 0 1 2-13 9-6 5h-2l2-4 8-7z" fill="#EFBAA2"/>
<path transform="translate(930,288)" d="m0 0 2 1v27l-1-4h-2l1-21-2-1h2z" fill="#F4B793"/>
<path transform="translate(623,106)" d="m0 0 11 5 6 4-3 1-18-7-3-2z" fill="#E38975"/>
<path transform="translate(620,17)" d="m0 0h20l6 1-1 4-11-2-14-2z" fill="#2D2215"/>
<path transform="translate(882,777)" d="m0 0h1v10l-6 20-2 2 2-10 4-21z" fill="#FFECD5"/>
<path transform="translate(303,399)" d="m0 0h3v21l-1 10h-1z" fill="#FEE8D1"/>
<path transform="translate(478,143)" d="m0 0 1 3-12 16-5 5 2-5 6-9z" fill="#D57270"/>
<path transform="translate(719,437)" d="m0 0 2 1v2l-6 4-3 3-8 3 2-4z" fill="#0F0C0A"/>
<path transform="translate(305,373)" d="m0 0h1l1 8 2 1 1 2-1 12-2 1-1-7-1-1z" fill="#4F3620"/>
<path transform="translate(661,710)" d="m0 0m-2 1h2v3l-10 3h-18v-1l13-1 5-2z" fill="#FEF0DC"/>
<path transform="translate(694,507)" d="m0 0 2 3 2 9v4l4 7-4-2-4-5-1-11z" fill="#EDA687"/>
<path transform="translate(899,452)" d="m0 0h1v20h2l-1 10-1 1-1 9h-1z" fill="#342719"/>
<path transform="translate(440,451)" d="m0 0v3l-1 5-10 6h-2l2-4z" fill="#1D1814"/>
<path transform="translate(393,168)" d="m0 0 1 3-4 10-4 11h-1v-7l5-14z" fill="#DA7971"/>
<path transform="translate(565,890)" d="m0 0 3 1-1 4 4 2-5 1h-11l1-3 9-3z" fill="#E89980"/>
<path transform="translate(526,116)" d="m0 0m-3 1 4 1-6 7-4 4h-2l-1-3z" fill="#FEF1DF"/>
<path transform="translate(394,800)" d="m0 0 3 3 6 11 2 3v6l-3-4-8-15z" fill="#FCF6F0"/>
<path transform="translate(880,419)" d="m0 0 1 2h2v5l-1 3 1 6-8-5 1-2 3-4z" fill="#CD6D6F"/>
<path transform="translate(798,348)" d="m0 0h6l1 3h-26l2-2z" fill="#E9977C"/>
<path transform="translate(545,29)" d="m0 0 3 1-2 1 1 2-23 6-3-1z" fill="#291F13"/>
<path transform="translate(434,474)" d="m0 0 3 1 1 4-3 1h-10l-2-2z" fill="#100B08"/>
<path transform="translate(747,423)" d="m0 0h5v4l-9 2-5 1v-4z" fill="#0C0806"/>
<path transform="translate(926,289)" d="m0 0h1v24l-2 4-3-2h2l-2-9 3-1z" fill="#5B432A"/>
<path transform="translate(494,737)" d="m0 0 1 3-3 6-1 6-7 6 1-4z" fill="#281C11"/>
<path transform="translate(617,609)" d="m0 0 3 1 3 7-10 2 3-9z" fill="#EEA788"/>
<path transform="translate(627,604)" d="m0 0 2 3 1 3v8h-2l-6-13 5 1z" fill="#FCE8D4"/>
<path transform="translate(524,430)" d="m0 0 10 2-2 2 1 2-5 1-6-1v-2l-2-1h5z" fill="#141211"/>
<path transform="translate(926,313)" d="m0 0h1v35h-1l-2-15v-6h1z" fill="#DF7E70"/>
<path transform="translate(908,271)" d="m0 0 3 3 7 14 2 10-3-4-9-20z" fill="#E28471"/>
<path transform="translate(800,128)" d="m0 0 8 6 6 7-1 4-9-9-3-5z" fill="#744939"/>
<path transform="translate(542,74)" d="m0 0h13l-2 2-15 4-3-1 3-1v-2z" fill="#010002"/>
<path transform="translate(726,1047)" d="m0 0h1v6l-6 10-3 4-3-1 4-5 3-6z" fill="#EEA889"/>
<path transform="translate(575,996)" d="m0 0 12 1 4 3v3l-6-1-8-3v-2z" fill="#160F0A"/>
<path transform="translate(314,419)" d="m0 0h1l-1 10-3 9h-2v-8l3-7z" fill="#4A331D"/>
<path transform="translate(482,351)" d="m0 0 10 3 4 3h-10l-10-1v-1l6-1z" fill="#E99A7F"/>
<path transform="translate(394,266)" d="m0 0h2l1 2 3 1-1 4-11 1 2-4z" fill="#FBDFC6"/>
<path transform="translate(483,88)" d="m0 0 2 1-3 3-2 4-9 2v-3l10-6z" fill="#332714"/>
<path transform="translate(732,393)" d="m0 0 2 1-10 8-7 2-2-2z" fill="#EBA084"/>
<path transform="translate(649,148)" d="m0 0h7v3l-4 1h-8v2h-8l-3-2 8-1 9-1z" fill="#453220"/>
<path transform="translate(760,856)" d="m0 0 1 4-7 7h-2v-5l4-5 4 1z" fill="#FADAC0"/>
<path transform="translate(576,401)" d="m0 0 5 1 6 3-4 2-3-2 4 5-7-1-4-2 4-1z" fill="#4F3721"/>
<path transform="translate(306,318)" d="m0 0h2l-2 10-2 14-3 1 2-15z" fill="#FAD7BD"/>
<path transform="translate(368,246)" d="m0 0 1 3-12 17-3 2 2-5 10-15z" fill="#E38874"/>
<path transform="translate(464,207)" d="m0 0 1 4-2 3-1 5h-3l-3 5-1-3 6-11z" fill="#FAD9C0"/>
<path transform="translate(577,96)" d="m0 0 15 1-3 2h-22v-2z" fill="#F4B896"/>
<path transform="translate(554,95)" d="m0 0h10l2 2-15 4h-3v-2l3-1z" fill="#46311C"/>
<path transform="translate(555,64)" d="m0 0h4v3l-14 4-3-1 1-2 7-1v-2z" fill="#ECA385"/>
<path transform="translate(589,844)" d="m0 0 3 4 2 9-5-2-2-4v-5h2z" fill="#1E160E"/>
<path transform="translate(442,152)" d="m0 0 3 2-3 1-2 4h-2l-2 4-7 5 2-4 7-8z" fill="#D97770"/>
<path transform="translate(805,778)" d="m0 0h1v7l3-1v29h-1l-1-25-3 2z" fill="#E48772"/>
<path transform="translate(885,418)" d="m0 0 4 1 5 7 2 6v8l-2-2-2-9-5-8z" fill="#E99E83"/>
<path transform="translate(418,383)" d="m0 0 1 2-12 8-3-1v-3l10-5z" fill="#EDC7AD"/>
<path transform="translate(331,316)" d="m0 0h2l-1 6-3 3h-2l-1 7-2-1 1-7z" fill="#7B4A3E"/>
<path transform="translate(632,702)" d="m0 0 8 2 12 1v1l-24 1-3-2 2-1 5 1z" fill="#EA9B80"/>
<path transform="translate(332,547)" d="m0 0 1 3-6 11h-2l-1-4 7-9z" fill="#F6CAB0"/>
<path transform="translate(798,481)" d="m0 0 3 1-6 3h-8l-1-1-11-1v-1z" fill="#DB7A70"/>
<path transform="translate(749,392)" d="m0 0h3v3l9 1-4 2-9 2-4-1 4-3h2v-2l-3-1z" fill="#4E3721"/>
<path transform="translate(357,340)" d="m0 0 1 2-3 6-3-2-8 8v-3l6-7z" fill="#392C18"/>
<path transform="translate(468,196)" d="m0 0 1 2h2l-2 5-3 6h-3l-2 1 2-5z" fill="#F3C1A8"/>
<path transform="translate(770,137)" d="m0 0 12 4v2l7 1 2 3-11-3-12-5z" fill="#332714"/>
<path transform="translate(528,1030)" d="m0 0h2l5 6 3 2v2l3 1 1 3-5-2-9-9z" fill="#EAA188"/>
<path transform="translate(555,740)" d="m0 0 1 3-4 6-5 7-2-1 1-4z" fill="#F7CFB6"/>
<path transform="translate(732,679)" d="m0 0 4 1 6 4 2 4-4-1-9-5z" fill="#F7C9AC"/>
<path transform="translate(435,404)" d="m0 0h10l2 3-11 1-10-1 4-2z" fill="#FCF9F6"/>
<path transform="translate(302,381)" d="m0 0 2 4 1 13-3 2-1-9v-9z" fill="#FCDFC6"/>
<path transform="translate(751,347)" d="m0 0 6 2-1 2-11 2h-5l5-4z" fill="#E89076"/>
<path transform="translate(408,182)" d="m0 0h3l2 1-8 7-8 6 2-4z" fill="#3C2D18"/>
<path transform="translate(573,147)" d="m0 0h6l-4 3-9 3-6-1v-2z" fill="#F2B99C"/>
<path transform="translate(487,140)" d="m0 0h2l2 4-1 4-3 3v-4l-4 7-1-3z" fill="#513C24"/>
<path transform="translate(317,381)" d="m0 0h1l1 6 1 3h-2l-1 7-2 5-1-3 1-11z" fill="#47311C"/>
<path transform="translate(795,342)" d="m0 0 3 1-8 4-8 2-4-3z" fill="#2B2013"/>
<path transform="translate(315,480)" d="m0 0h1l4 13 3 6v4l-4-2 2-1-5-9-1-1z" fill="#44311C"/>
<path transform="translate(825,478)" d="m0 0 4 1-10 5-5 2h-6l4-3z" fill="#D57270"/>
<path transform="translate(579,403)" d="m0 0 5 3 4 1v2l4 2h-14l-1-2h6l-4-4z" fill="#D06C70"/>
<path transform="translate(546,66)" d="m0 0 4 1-7 1-1 3-8 2-4-1 5-3z" fill="#E58770"/>
<path transform="translate(599,849)" d="m0 0 5 1v2h2l3 6-5-1-5-5z" fill="#251910"/>
<path transform="translate(315,701)" d="m0 0 6 1 5 4 2 5-5-2-8-7z" fill="#FCE9D6"/>
<path transform="translate(832,435)" d="m0 0 5 3 3 4v3l-6-2-3-5z" fill="#1D150E"/>
<path transform="translate(814,425)" d="m0 0 5 1 3 2-1 4-6-1-2-5z" fill="#0D0B0A"/>
<path transform="translate(897,274)" d="m0 0 5 4 6 12-3 1-8-15z" fill="#42321C"/>
<path transform="translate(776,703)" d="m0 0 4 2 5 6 3 7-3-1-5-6-3-5z" fill="#F6CBB3"/>
<path transform="translate(589,573)" d="m0 0v3l-6 3h-2v3l-3 1-2 2 1-6 3-1 2-3z" fill="#EFAB8A"/>
<path transform="translate(618,553)" d="m0 0h5l-1 4-7 3-4-1 3-3h2v-2z" fill="#FDFBF9"/>
<path transform="translate(903,499)" d="m0 0 1 2 3 1 5 10-5-1-1-5-2 1-2-7z" fill="#FFECD5"/>
<path transform="translate(465,443)" d="m0 0 3 1-2 4-6 3h-3v-2h2v-3z" fill="#ECA285"/>
<path transform="translate(807,408)" d="m0 0h11l-2 1-1 2 10 1v1h-14l-1-2-4-2z" fill="#1B1715"/>
<path transform="translate(760,342)" d="m0 0 2 2-11 4h-2v-2h-3v-2z" fill="#221B12"/>
<path transform="translate(733,109)" d="m0 0h5v2l9 5 1 3-5-2-12-6z" fill="#F0AC8C"/>
<path transform="translate(617,713)" d="m0 0 9 1 4 2h-12l-4 2-4-1 4-3z" fill="#ED9D7E"/>
<path transform="translate(757,452)" d="m0 0h2l2 8 2 6h-3l-2-2-1-4z" fill="#ED9F80"/>
<path transform="translate(513,453)" d="m0 0 2 1-1 11-3 4-2-1 2-6v-8z" fill="#EFAE8D"/>
<path transform="translate(557,399)" d="m0 0 6 2 10 6-4 2-5-3-7-6z" fill="#E38D7A"/>
<path transform="translate(685,111)" d="m0 0 7 1-1 3 6 2 3 4-5-2-8-4z" fill="#312513"/>
<path transform="translate(589,98)" d="m0 0h9l1 5h-6l-4-3z" fill="#F0AD8C"/>
<path transform="translate(445,404)" d="m0 0h14l-2 3h-10l-4-2z" fill="#FDF7E9"/>
<path transform="translate(486,164)" d="m0 0h2v7l-4 5-2-2v-3z" fill="#F7CEB3"/>
<path transform="translate(770,131)" d="m0 0h6l9 6v2l-7-2-8-5z" fill="#ECA183"/>
<path transform="translate(609,102)" d="m0 0 9 2 5 2-3 2-11-2v-3z" fill="#ECA183"/>
<path transform="translate(720,61)" d="m0 0 4 1 8 4v2l-6-1-8-4z" fill="#583B24"/>
<path transform="translate(810,885)" d="m0 0 1 4-6 10h-3l2-6h2v-3h2z" fill="#F6C9AE"/>
<path transform="translate(808,832)" d="m0 0 1 4-4 11h-1v-8l1-6z" fill="#EDA384"/>
<path transform="translate(405,818)" d="m0 0h2l4 7v5l-4-2-2-4z" fill="#FCF3E7"/>
<path transform="translate(706,721)" d="m0 0 4 2 13 9 1 2-4-1-11-8-3-2z" fill="#F8D1B6"/>
<path transform="translate(610,707)" d="m0 0 2 4 11 1 3 2h-17l-1-3z" fill="#FEF3E1"/>
<path transform="translate(673,411)" d="m0 0 3 2 9 1-3 2-4 1h-13v-1h8z" fill="#E8997F"/>
<path transform="translate(461,165)" d="m0 0h3v3l-5 7h-2l-1 3-1-2z" fill="#48341F"/>
<path transform="translate(520,77)" d="m0 0 2 1v2l-15 5h-2v-2z" fill="#F1B494"/>
<path transform="translate(708,814)" d="m0 0 5 1 2 2v7l-2 2-1-4-3-5z" fill="#0A0705"/>
<path transform="translate(904,313)" d="m0 0 4 4 4 9h-2l-1 2-5-12z" fill="#362915"/>
<path transform="translate(560,100)" d="m0 0h5l-2 2-17 5 1-3 8-3z" fill="#FCE0C8"/>
<path transform="translate(756,693)" d="m0 0 6 1 4 3-1 4-5-3z" fill="#0C0806"/>
<path transform="translate(953,600)" d="m0 0 3 1-1 9-3 3v-11z" fill="#FBEEE4"/>
<path transform="translate(333,573)" d="m0 0 2 1v2h2l1-2 2 12h-2l-5-10z" fill="#FCDFC7"/>
<path transform="translate(813,481)" d="m0 0m-3 1 3 1-3 2 1 2-5 2h-6l3-2-2-1z" fill="#EA8D71"/>
<path transform="translate(403,405)" d="m0 0h13v1l-6 1v1h-12v-2z" fill="#EEA988"/>
<path transform="translate(528,401)" d="m0 0 9 2 4 2h-18v-1l5-1z" fill="#DB7A70"/>
<path transform="translate(344,375)" d="m0 0 2 1-6 11-2 6h-1v-7z" fill="#FAD8BE"/>
<path transform="translate(906,290)" d="m0 0h3l4 10-1 4-2-3-4-8z" fill="#4D3A23"/>
<path transform="translate(446,171)" d="m0 0 1 2-4 6-5 6-1-2 7-11z" fill="#5D3E2C"/>
<path transform="translate(678,41)" d="m0 0 9 3 7 4-1 3-15-9z" fill="#47331E"/>
<path transform="translate(770,962)" d="m0 0h2l-2 4-8 5h-3v-2l7-4 1-2z" fill="#130E09"/>
<path transform="translate(311,485)" d="m0 0 5 5 5 8v2l-4-2-1-3v-3l-3-1-2-3z" fill="#DC7C70"/>
<path transform="translate(485,455)" d="m0 0h3l-2 4h-2l-2 8h-1v-10z" fill="#EDA383"/>
<path transform="translate(396,424)" d="m0 0 2 2 5-1 1 2-4 4h-2v-2h-4z" fill="#62452D"/>
<path transform="translate(379,325)" d="m0 0 2 1-1 15h-1v-7l-3-1 1-5z" fill="#FFECD5"/>
<path transform="translate(408,222)" d="m0 0 2 1-6 13-2-4 2-4z" fill="#EB9E82"/>
<path transform="translate(386,188)" d="m0 0h1l-1 7-3 9h-1v-7l2-8z" fill="#D37070"/>
<path transform="translate(689,109)" d="m0 0 10 4 8 4-3 1-16-7z" fill="#EFAB8B"/>
<path transform="translate(672,96)" d="m0 0 5 3 2 3-4 1-7-4v-2z" fill="#583B24"/>
<path transform="translate(549,76)" d="m0 0h9l1 2-16 2h-5l4-2z" fill="#46341E"/>
<path transform="translate(711,992)" d="m0 0 3 1-2 1-1 2-4 1-6 1 2-4-3-1h5l1 2z" fill="#48331E"/>
<path transform="translate(680,710)" d="m0 0h7l4 2h3l-1 3-6-1-7-3z" fill="#FDF3E3"/>
<path transform="translate(361,454)" d="m0 0 5 2 1 5-2 1-4-1z" fill="#EFAD90"/>
<path transform="translate(519,449)" d="m0 0 2 1v14l-1-4-3-1v-6h2z" fill="#191613"/>
<path transform="translate(476,409)" d="m0 0 10 1-4 4-10-1 1-3z" fill="#010206"/>
<path transform="translate(718,392)" d="m0 0 2 1-8 7h-7l4-3z" fill="#DC7E73"/>
<path transform="translate(329,369)" d="m0 0 1 3-5 12h-2l-1 2 1-5z" fill="#8C5C43"/>
<path transform="translate(366,296)" d="m0 0 2 1-4 5-2 4h-2l-2 4-3 2 2-4 8-11z" fill="#D39273"/>
<path transform="translate(813,884)" d="m0 0 2 1-1 9-2 3v-4h-3l2-5z" fill="#3F2D1B"/>
<path transform="translate(617,877)" d="m0 0h3l-1 4-1 1h-8v-2z" fill="#0F0A07"/>
<path transform="translate(715,869)" d="m0 0 4 1-1 1 7 4v1h-7l-5-1 4-2-2-1z" fill="#E48F7A"/>
<path transform="translate(738,680)" d="m0 0 5 2 3 2 1 3 5 3v2l-4-2-8-7z" fill="#2F2013"/>
<path transform="translate(708,667)" d="m0 0 5 1 9 7-4 2-8-8z" fill="#4F3620"/>
<path transform="translate(303,431)" d="m0 0h1l1 9 1 2-2 8-2 1z" fill="#EDA283"/>
<path transform="translate(886,296)" d="m0 0 3 1 6 13-1 2-6-9z" fill="#674B33"/>
<path transform="translate(636,112)" d="m0 0 6 2 6 4v2l-6-1-2-1v-3l-4-2z" fill="#4E3622"/>
<path transform="translate(532,695)" d="m0 0v3l-9 8-1-2 7-8z" fill="#F9D1B7"/>
<path transform="translate(343,658)" d="m0 0 3 2 2 4v5l-5-5-1-5z" fill="#F1AF8F"/>
<path transform="translate(670,609)" d="m0 0 5 1v5l-4-1-4-2z" fill="#ECA586"/>
<path transform="translate(396,529)" d="m0 0 11 2-2 2-7 2z" fill="#E99B80"/>
<path transform="translate(559,519)" d="m0 0 8 1-1 3-6 1-3-4z" fill="#0E0A08"/>
<path transform="translate(466,474)" d="m0 0 7 2-2 7-4-2z" fill="#0F0F11"/>
<path transform="translate(789,462)" d="m0 0 2 1-4 6-3 2-8-1-1-2 6 1 6-3z" fill="#EFAB8A"/>
<path transform="translate(493,436)" d="m0 0h8l3 2-1 1h-11l-1-2z" fill="#F0AD8B"/>
<path transform="translate(368,296)" d="m0 0 1 4-5 10-2-1 2-4 1-5z" fill="#41301C"/>
<path transform="translate(851,239)" d="m0 0 7 6 2 3-3 2-6-9z" fill="#3A2A19"/>
<path transform="translate(799,178)" d="m0 0 6 2 10 8v2l-4-2-5-4-7-5z" fill="#FBDCC3"/>
<path transform="translate(615,150)" d="m0 0h19l3 2-7 1-3-1-12-1z" fill="#E48A75"/>
<path transform="translate(793,142)" d="m0 0 5 2 4 4-4-1zm-4 2 6 2 4 3-7-1z" fill="#4C3821"/>
<path transform="translate(551,100)" d="m0 0h9v1l-11 3-8 1 2-2z" fill="#F2B08D"/>
<path transform="translate(581,99)" d="m0 0h8l3 3h-15l4-1z" fill="#EDA182"/>
<path transform="translate(717,1006)" d="m0 0h2l5 10v5l-2-2-5-10z" fill="#E79880"/>
<path transform="translate(308,564)" d="m0 0h2l-3 9-3 1-1-6 4-2z" fill="#F2B18F"/>
<path transform="translate(939,521)" d="m0 0h1v11l3 1-4 3h-2z" fill="#FDE8D1"/>
<path transform="translate(510,453)" d="m0 0 3 1h-2l1 2v6l-3 1v-8h-5v-1z" fill="#4D3A23"/>
<path transform="translate(825,453)" d="m0 0 7 6 6 4 2 4-4-2-8-7-3-3z" fill="#EA9C80"/>
<path transform="translate(345,437)" d="m0 0h2l-1 6-3 4-1-1 1-8z" fill="#FCF7F2"/>
<path transform="translate(475,404)" d="m0 0h8l1 2-7 1h-13v-1l10-1z" fill="#FEF2DF"/>
<path transform="translate(405,265)" d="m0 0 4 1-11 10-2-1 7-7z" fill="#543825"/>
<path transform="translate(699,121)" d="m0 0h4l7 7-7-1-3-2z" fill="#4E351F"/>
<path transform="translate(688,104)" d="m0 0 8 2-1 3-5 1-2-2 1-2-3-1z" fill="#543922"/>
<path transform="translate(610,29)" d="m0 0 9 1 6 1-1 2-16-1 2-1z" fill="#EFAD8C"/>
<path transform="translate(598,18)" d="m0 0h10l10 2v1h-12l-8-2z" fill="#4C3922"/>
<path transform="translate(530,982)" d="m0 0 4 3-1 2-4 1-6 4 2-4z" fill="#EFA889"/>
<path transform="translate(814,895)" d="m0 0 2 1 4-1-2 4-4 4h-2z" fill="#FCE0C7"/>
<path transform="translate(716,823)" d="m0 0h1v17l-5-2 1-3 3 1z" fill="#DB7A70"/>
<path transform="translate(596,783)" d="m0 0h16v1l-7 1v2l-6-1z" fill="#EB9476"/>
<path transform="translate(653,704)" d="m0 0 4 1-3 2h-22v-1l20-1z" fill="#FBE0CA"/>
<path transform="translate(677,559)" d="m0 0 5 1 1 4-1 3h-6v-1h5l-4-4z" fill="#FFECD5"/>
<path transform="translate(712,524)" d="m0 0h4l1 4 2 2-7-1-2-1z" fill="#1B140D"/>
<path transform="translate(778,454)" d="m0 0h7v7l-1-4-8 2z" fill="#FBDEC5"/>
<path transform="translate(593,404)" d="m0 0 6 2 1 2h-2v3h2v2l-4-1-2-4z" fill="#CF6A70"/>
<path transform="translate(423,164)" d="m0 0h2l-2 5-4 5h-2l1-5 3-3z" fill="#EEA687"/>
<path transform="translate(481,137)" d="m0 0 3 1-1 5-4 3-1-5z" fill="#553F27"/>
<path transform="translate(518,110)" d="m0 0 6 1-1 3-7 4 1-7z" fill="#4C341E"/>
<path transform="translate(457,470)" d="m0 0 2 1-1 5-8-1 1-3h3z" fill="#010002"/>
<path transform="translate(797,452)" d="m0 0 5 1 4 3-3 1-2-1-1 5-2-4z" fill="#F9D8C1"/>
<path transform="translate(539,402)" d="m0 0 9 1 3 3-6 1-8-3z" fill="#4C351F"/>
<path transform="translate(522,398)" d="m0 0h6v2l3 1h-3l1 3h-8v-1l5-1-4-2z" fill="#62462E"/>
<path transform="translate(542,398)" d="m0 0h2v2l7 2 2 2v3l-4-1-4-4-3-2z" fill="#D07C6D"/>
<path transform="translate(575,362)" d="m0 0 4 1 6 7-2 1-6-5z" fill="#FAD7BD"/>
<path transform="translate(331,340)" d="m0 0 1 2-7 13h-2l2-6z" fill="#DF7F70"/>
<path transform="translate(372,336)" d="m0 0 1 4-4 8-3 1 2-6z" fill="#EB9577"/>
<path transform="translate(440,141)" d="m0 0 3 2-6 7-2-1 2-4z" fill="#F9D4BA"/>
<path transform="translate(744,126)" d="m0 0h4l1 2 4 2v2l-9-3-3-2z" fill="#4A3720"/>
<path transform="translate(707,117)" d="m0 0 12 4v2l-12-3-2-2z" fill="#4A3821"/>
<path transform="translate(529,112)" d="m0 0 4 1v2l-6 4-3-3z" fill="#FAE1CC"/>
<path transform="translate(515,110)" d="m0 0 2 1-1 7-6-1 4-4z" fill="#583D25"/>
<path transform="translate(753,89)" d="m0 0 9 3 5 4-7-1-7-5z" fill="#583E26"/>
<path transform="translate(754,856)" d="m0 0 1 3-2 3-1 5 2 1h-3l-1-2-3-1h2l2-5z" fill="#553C25"/>
<path transform="translate(809,832)" d="m0 0h2v14h-1v-6l-3 1z" fill="#46331E"/>
<path transform="translate(782,706)" d="m0 0h2l7 13-1 3v-2l-4-2v-3z" fill="#583D25"/>
<path transform="translate(675,651)" d="m0 0 6 3v2l6 2v2l-4-1-8-5z" fill="#ECA489"/>
<path transform="translate(289,594)" d="m0 0h3l2 7v6l-2-2-3-9z" fill="#F5C3A8"/>
<path transform="translate(323,543)" d="m0 0 2 1-4 8h-3l1-4z" fill="#F3BC9F"/>
<path transform="translate(775,458)" d="m0 0h1v5l8 1v2l-6 1-5-6h2z" fill="#3D2F1A"/>
<path transform="translate(760,413)" d="m0 0 7 1v2l-14 1 2-2z" fill="#251910"/>
<path transform="translate(697,353)" d="m0 0 2 1-5 7-5 2 2-4 5-5z" fill="#241A10"/>
<path transform="translate(730,342)" d="m0 0 3 1-6 5 1 2h-4v-4l4-3z" fill="#44321D"/>
<path transform="translate(858,158)" d="m0 0 4 4v3l2 5-5-5-3-5h2z" fill="#F0AD8C"/>
<path transform="translate(478,143)" d="m0 0 1 3-7 9-2-2z" fill="#CF6B70"/>
<path transform="translate(537,74)" d="m0 0h5l-1 2h-3l-1 2-4 1-1-1-4-1z" fill="#3D2E19"/>
<path transform="translate(591,842)" d="m0 0 3 1 1 6-1 2h-2z" fill="#F6C6AB"/>
<path transform="translate(411,825)" d="m0 0 4 4-1 4-3 1-2-4z" fill="#FDECD8"/>
<path transform="translate(581,766)" d="m0 0h10l-4 2-6 2-4-1 1-2z" fill="#0E0E10"/>
<path transform="translate(376,757)" d="m0 0h2l3 9v5l-2-2-3-9z" fill="#FADDC8"/>
<path transform="translate(744,753)" d="m0 0 4 1 3 3v2h-5z" fill="#F3B795"/>
<path transform="translate(346,582)" d="m0 0 2 2 1 7-1 5-2-1z" fill="#FBE7D3"/>
<path transform="translate(711,442)" d="m0 0 2 1-1 4-8 3 2-4z" fill="#1C1711"/>
<path transform="translate(324,349)" d="m0 0 1 2-2 4h-2l-1 3-1-1v-7z" fill="#392B17"/>
<path transform="translate(356,345)" d="m0 0 2 4-2 4-5 1 2-5z" fill="#FBDCC3"/>
<path transform="translate(904,332)" d="m0 0 3 1 4 6-1 2-4-1z" fill="#332714"/>
<path transform="translate(322,312)" d="m0 0h1v6l-3 8-2-3 2-7z" fill="#342714"/>
<path transform="translate(879,282)" d="m0 0 2 1 5 11-1 2-6-9z" fill="#F2B89B"/>
<path transform="translate(387,179)" d="m0 0h2v6l-3 7h-1v-7z" fill="#DF7E70"/>
<path transform="translate(680,157)" d="m0 0 4 1-1 1 3 2h-11v-2z" fill="#3B2C18"/>
<path transform="translate(696,48)" d="m0 0 5 1 10 5-3 1-3-2-6-2z" fill="#D67370"/>
<path transform="translate(514,1011)" d="m0 0 4 2 1 6h2l-1 4-6-9z" fill="#E89C83"/>
<path transform="translate(472,908)" d="m0 0 4 2 4 4v3l-4-2-4-5z" fill="#F6CCB3"/>
<path transform="translate(479,871)" d="m0 0 1 2-2 5-4-1v2h-2l1-6 2 2z" fill="#E99A85"/>
<path transform="translate(544,750)" d="m0 0 2 2-8 8v-3l3-6z" fill="#412D1B"/>
<path transform="translate(740,747)" d="m0 0 4 3v3h-5l-3-4h4z" fill="#F2B18F"/>
<path transform="translate(944,640)" d="m0 0h1v11l-1 4h-3l1-5z" fill="#EFAA89"/>
<path transform="translate(402,524)" d="m0 0 12 1v1l-7 2-3 1-2-2z" fill="#201B16"/>
<path transform="translate(475,474)" d="m0 0h5l3 4h-7l-3-1v-2z" fill="#FAE5D3"/>
<path transform="translate(767,472)" d="m0 0 10 1 5-1-1 3h-8l-6-2z" fill="#342814"/>
<path transform="translate(598,408)" d="m0 0h3l3 4 3 2-4 1-3-2v-2h-2z" fill="#E48B75"/>
<path transform="translate(388,405)" d="m0 0h2v3h-12v-2z" fill="#FFECD5"/>
<path transform="translate(858,378)" d="m0 0 12 4v3l-6-2-6-3z" fill="#F0AB8B"/>
<path transform="translate(577,359)" d="m0 0 6 3 4 6h-3l-4-4-3-2z" fill="#3C2D19"/>
<path transform="translate(852,158)" d="m0 0 4 2v3l-1 2-3-1v-2l-2-1z" fill="#372916"/>
<path transform="translate(694,48)" d="m0 0 5 2 3 2-1 2h-3l-4-3z" fill="#513A23"/>
</svg>
